<?xml version="1.0" encoding="utf-8"?>
<!-- Generator: Adobe Illustrator 16.0.0, SVG Export Plug-In . SVG Version: 6.00 Build 0)  -->
<!DOCTYPE svg PUBLIC "-//W3C//DTD SVG 1.1//EN" "http://www.w3.org/Graphics/SVG/1.1/DTD/svg11.dtd">
<svg version="1.1" id="Layer_1" xmlns="http://www.w3.org/2000/svg" xmlns:xlink="http://www.w3.org/1999/xlink" x="0px" y="0px"
	 width="600px" height="600px" viewBox="0 0 600 600" enable-background="new 0 0 600 600" xml:space="preserve">
<rect display="none" fill-rule="evenodd" clip-rule="evenodd" fill="#ED1F24" width="600" height="600"/>
<rect x="497.91" y="302" display="none" fill-rule="evenodd" clip-rule="evenodd" fill="#8F4A4B" width="20" height="20"/>
<rect x="476" y="302" display="none" fill-rule="evenodd" clip-rule="evenodd" fill="#8F4A4B" width="20" height="20"/>
<rect x="455.041" y="302" display="none" fill-rule="evenodd" clip-rule="evenodd" fill="#8F4A4B" width="20" height="20"/>
<rect x="434" y="302" display="none" fill-rule="evenodd" clip-rule="evenodd" fill="#8F4A4B" width="20" height="20"/>
<g>
	<path fill-rule="evenodd" clip-rule="evenodd" fill="#FFFFFF" d="M118.413,124.13v11.36h5.79c1.043,0,1.89,0.459,1.89,1.5
		s-0.847,1.5-1.89,1.5H30.89c-1.043,0-1.89-0.729-1.89-1.769c0-5.152,4.208-9.23,9.382-9.23h46.037v-3.999H71.715
		c-1.044,0-1.891-0.96-1.891-1.999c0-1.041,0.847-2,1.891-2h12.704V94.497H58.567c-1.044,0-1.89-0.959-1.89-2
		c0-1.039,0.846-2,1.89-2h45.849V73.451c0-4.002-3.309-7.258-7.328-7.258c-1.043,0-1.909-0.843-1.909-1.883
		c0-1.04,0.985-1.882,2.028-1.882c6.104,0,11.208,4.945,11.208,11.023V95.33c0,1.04-0.956,1.882-2,1.882s-2-0.842-2-1.882v-0.833
		H88.418v32.994h20.52c1.044,0,1.891,0.961,1.891,2c0,1.041-0.847,2-1.891,2H38.382c-2.426,0-4.497,2-5.273,4h81.305v-11.36
		c-5.999-0.909-10.586-6.071-10.586-12.282s4.587-11.373,10.586-12.283V73.451c0-9.643-7.681-17.947-17.363-17.947h-5.633v13.998
		h0.703c1.043,0,1.891,0.96,1.891,2c0,1.04-0.848,2-1.891,2h-3.702v6.767c0,1.041-0.595,2.232-1.639,2.232H71.716
		c-1.044,0-2.294-1.191-2.294-2.232v-6.767h-3.046c-1.044,0-1.891-0.96-1.891-2c0-1.04,0.847-2,1.891-2h1.046V30.417
		c0-1.039,0.43-1.908,1.474-1.908H89.6c1.044,0,1.818,0.869,1.818,1.908v22.088h5.632c11.767,0,21.363,9.228,21.363,20.946v26.115
		c5.999,0.91,10.587,6.072,10.587,12.283S124.412,123.221,118.413,124.13z M73.421,78.5h10.998v-4.999H73.421V78.5z M87.418,32.508
		H70.421v36.993h16.997V32.508z M116.501,103.496c-0.001,0-0.002,0-0.002,0l-0.001-0.153c-4.795,0-8.694,3.808-8.694,8.583
		c0,4.775,3.901,8.622,8.695,8.622c4.796,0,8.696-3.75,8.696-8.525C125.195,107.247,121.295,103.496,116.501,103.496z M89.6,24.51
		H68.896c-1.044,0-1.891-0.96-1.891-2c0-1.04,0.847-2,1.891-2H89.6c1.044,0,1.891,0.96,1.891,2C91.49,23.55,90.644,24.51,89.6,24.51
		z"/>
</g>
<g>
	<path fill-rule="evenodd" clip-rule="evenodd" fill="#FFFFFF" d="M242.955,49.83c-0.315,0.337-0.765,0.494-1.192,0.494
		s-0.855-0.18-1.193-0.494l-2.521-2.472l-10.826,10.628l8.305,8.157c0.676,0.651,0.676,1.708,0.023,2.381
		c-0.315,0.337-0.766,0.494-1.193,0.494s-0.855-0.179-1.193-0.494l-4.366-4.292L196,96.491c-0.315,0.314-0.743,0.509-1.193,0.509
		c-0.045,0-0.067,0-0.113,0l-17.445-1.094l-9.994,9.812c-0.337,0.337-0.765,0.491-1.193,0.491s-0.855-0.159-1.193-0.496
		c-0.653-0.652-0.653-1.731,0.022-2.383l9.972-9.797l-1.081-17.122c-0.045-0.494,0.158-0.966,0.495-1.303l32.774-32.221
		l-4.321-4.247c-0.676-0.652-0.676-1.708-0.023-2.382c0.653-0.674,1.711-0.674,2.387-0.022l8.351,8.201l10.805-10.628l-2.476-2.427
		c-0.676-0.652-0.676-1.708-0.023-2.382c0.653-0.674,1.733-0.674,2.387-0.022l18.772,18.447
		C243.563,48.077,243.584,49.133,242.955,49.83z M209.438,45.246l-7.113,7.01l11.008,10.808l-2.363,2.404l-11.053-10.853
		l-5.132,5.033l5.177,5.1l-2.363,2.405l-5.222-5.124l-5.267,5.19l10.872,10.673l-2.364,2.404L184.723,69.58l-7.519,7.393
		l0.99,15.639l15.959,0.989l32.211-31.705L209.438,45.246z M226.635,36.168l-10.805,10.628l8.959,8.831l10.805-10.65L226.635,36.168
		z M183.665,113.688l5.402-5.303c0.653-0.651,1.71-0.651,2.363,0l16.207,15.931c0.338,0.315,0.518,0.742,0.518,1.191
		c0,0.45-0.18,0.876-0.495,1.191L202.258,132c-0.338,0.337-0.766,0.494-1.193,0.494s-0.855-0.18-1.193-0.494l-16.207-15.931
		c-0.315-0.314-0.495-0.742-0.495-1.191S183.35,114.002,183.665,113.688z M201.065,128.472l2.994-2.943l-5.695-5.595l-2.994,2.943
		L201.065,128.472z M192.961,120.496l2.994-2.944l-5.695-5.595l-2.994,2.943L192.961,120.496z M207.052,105.688
		c0-0.449,0.18-0.898,0.495-1.213l15.914-15.931c0.652-0.652,1.733-0.652,2.387,0l5.401,5.303c0.315,0.314,0.495,0.742,0.495,1.168
		c0,0.45-0.18,0.876-0.495,1.191l-15.914,15.661c-0.337,0.337-0.765,0.495-1.192,0.495c-0.406,0-0.833-0.158-1.148-0.45
		l-5.402-5.033C207.254,106.587,207.052,106.138,207.052,105.688z M227.67,95.038l-2.993-2.943l-5.515,5.505l2.926,2.898
		L227.67,95.038z M214.098,108.363l5.582-5.483l-2.927-2.876l-5.604,5.617L214.098,108.363z"/>
</g>
<g>
	<path fill-rule="evenodd" clip-rule="evenodd" fill="#FFFFFF" d="M372.919,53.383c-0.384,0.383-0.887,0.576-1.391,0.576
		c-0.503,0-1.007-0.193-1.391-0.576C356.634,39.869,338.65,32.428,319.5,32.428s-37.135,7.441-50.639,20.956
		c-0.769,0.77-2.012,0.77-2.781,0c-0.769-0.769-0.769-2.013,0-2.782c14.248-14.259,33.219-22.108,53.42-22.108
		c20.2,0,39.174,7.851,53.419,22.108C373.688,51.369,373.688,52.615,372.919,53.383z M361.356,62.168
		c0.769,0.77,0.769,2.014,0,2.783s-2.012,0.77-2.781,0c-21.548-21.563-56.607-21.563-78.153,0c-0.384,0.383-0.887,0.576-1.391,0.576
		c-0.503,0-1.007-0.193-1.391-0.576c-0.769-0.77-0.769-2.014,0-2.783C300.723,39.07,338.278,39.074,361.356,62.168z M319.5,61.199
		c11.456,0,22.217,4.454,30.296,12.539c0.769,0.77,0.769,2.014,0,2.783c-0.384,0.383-0.888,0.576-1.391,0.576
		c-0.504,0-1.007-0.193-1.391-0.576c-7.338-7.342-17.108-11.386-27.515-11.386s-20.178,4.044-27.516,11.386
		c-0.769,0.77-2.012,0.77-2.781,0c-0.769-0.77-0.769-2.014,0-2.783C297.285,65.653,308.043,61.199,319.5,61.199z M319.5,79.715
		c7.105,0,12.886,5.785,12.886,12.896c0,7.109-5.78,12.895-12.886,12.895c-7.104,0-12.885-5.785-12.885-12.895
		C306.615,85.5,312.396,79.715,319.5,79.715z M319.5,101.567c4.937,0,8.952-4.019,8.952-8.959s-4.018-8.958-8.952-8.958
		s-8.951,4.018-8.951,8.958S314.563,101.567,319.5,101.567z"/>
</g>
<g>
	<path fill-rule="evenodd" clip-rule="evenodd" fill="#FFFFFF" d="M514,101.906c0-15.146-13.269-27.865-30.99-30.886
		c0.75-2.491,1.125-4.96,1.125-7.451c0-17.372-17.479-31.569-39.078-31.569C423.456,32,406,46.197,406,63.569
		c0,7.892,3.438,15.101,9.875,20.965l-7.12,17.129l21.601-8.796c2.094,0.639,4.298,1.146,6.611,1.565
		c-0.727,2.403-1.102,4.894-1.102,7.452c0,17.371,17.457,31.569,39.057,31.569c5.047,0,9.874-0.684,14.701-2.249l21.6,8.796
		l-7.119-17.129C510.562,117.029,514,109.577,514,101.906z M430.355,88.149l-13.093,5.181l4.144-9.92c0,0-10.8-7.297-10.8-19.621
		c0-14.88,15.407-27.071,34.472-27.071c19.065,0,34.473,12.169,34.936,26.829c0,2.447-0.441,4.695-1.125,6.922
		c-1.301-0.11-2.601-0.154-3.923-0.154c-16.442,0-30.46,8.223-36.235,19.796C436.086,89.891,430.355,88.149,430.355,88.149z
		 M489.623,126.508c-4.387,1.764-9.633,2.69-14.459,2.69c-19.065,0-34.472-12.169-34.472-27.072
		c0-14.88,15.406-27.072,34.472-27.072c19.064,0,34.472,12.169,34.472,27.072c0,12.279-10.8,19.62-10.8,19.62l4.144,9.92
		L489.623,126.508z"/>
</g>
<g>
	<path fill-rule="evenodd" clip-rule="evenodd" fill="none" d="M314.5,150.809c0-0.564,0.466-1.023,1.049-1.023h8.69l-3.688-3.601
		c-0.407-0.397-0.407-1.046,0-1.451l0.99-0.967c0.407-0.397,1.071-0.397,1.486,0l7.164,6.995c0.203,0.199,0.308,0.459,0.308,0.723
		c0,0.261-0.104,0.524-0.308,0.723l-7.164,6.994c-0.407,0.397-1.071,0.397-1.486,0l-0.99-0.966c-0.407-0.397-0.407-1.046,0-1.451
		l3.688-3.588h-8.686c-0.578,0-1.049-0.459-1.049-1.023L314.5,150.809z"/>
</g>
<g>
	<path fill-rule="evenodd" clip-rule="evenodd" fill="#FFFFFF" d="M47,164.169c0-0.563,0.466-1.169,1.049-1.169h8.69l-3.688-3.455
		c-0.407-0.397-0.407-0.973,0-1.378l0.99-0.93c0.407-0.397,1.071-0.379,1.486,0.019l7.164,7.004
		c0.203,0.198,0.308,0.463,0.308,0.727c0,0.261-0.104,0.526-0.308,0.726l-7.164,6.995c-0.407,0.397-1.071,0.398-1.486,0.001
		l-0.99-0.967c-0.407-0.397-0.407-1.397,0-1.802L56.739,166h-8.686c-0.578,0-1.049-0.181-1.049-0.745L47,164.169z"/>
</g>
<g>
	<path fill-rule="evenodd" clip-rule="evenodd" fill="#FFFFFF" d="M45,164.188c0-0.563-0.466-1.188-1.049-1.188h-8.69l3.688-3.428
		c0.407-0.396,0.407-0.961,0-1.366l-0.99-0.923c-0.407-0.396-1.071-0.376-1.486,0.02l-7.164,6.992
		c-0.203,0.199-0.308,0.464-0.308,0.727c0,0.26,0.104,0.525,0.308,0.724l7.164,6.983c0.407,0.396,1.071,0.397,1.486,0l0.99-0.965
		c0.407-0.397,0.407-1.412,0-1.816L35.261,166h8.686c0.577,0,1.049-0.174,1.049-0.736L45,164.188z"/>
</g>
<g>
	<path fill="#1B427A" d="M96.663,260.52l-36.297-65.629c-0.475-0.858-1.381-1.391-2.365-1.391s-1.891,0.533-2.365,1.391
		L19.339,260.52c-0.46,0.832-0.444,1.844,0.042,2.661c0.485,0.817,1.369,1.319,2.324,1.319h72.593c0.954,0,1.838-0.502,2.323-1.319
		S97.122,261.352,96.663,260.52z M26.271,259.129L58,201.757l31.729,57.372H26.271z"/>
	<path fill="#1B427A" d="M54.618,220.948v19.414c0,1.858,1.515,3.366,3.383,3.366s3.383-1.508,3.383-3.366v-19.414
		c0-1.859-1.515-3.366-3.383-3.366S54.618,219.089,54.618,220.948z"/>
	<path fill="#1B427A" d="M58,247.223c-1.965,0-3.563,1.59-3.563,3.545c0,1.955,1.599,3.545,3.563,3.545s3.563-1.591,3.563-3.545
		C61.564,248.813,59.965,247.223,58,247.223z"/>
</g>
<g>
	<g>
		<path fill="#1B427A" d="M170.234,271.775c-2.516,0-4.959-0.729-7.066-2.107c-0.659-0.432-1.824-0.878-2.635-0.878h-28.09
			c-1.543,0-2.967-0.614-4.007-1.73c-1.042-1.118-1.572-2.597-1.495-4.167l0.352-7.042c0.019-0.379-0.11-0.733-0.361-0.998
			c-0.243-0.255-0.574-0.396-0.933-0.396h-2.056c-1.59,0-2.962-0.637-3.862-1.793c-0.898-1.15-1.195-2.647-0.836-4.217
			c0.404-1.78,0.975-4.259,1.77-7.708c1.828-7.924,8.117-11.56,11.702-13.022c0.33-0.134,0.543-0.347,0.602-0.598
			c0.059-0.255-0.042-0.545-0.284-0.818c-3.617-4.062-5.609-9.304-5.609-14.76c0-12.135,9.685-22.007,21.59-22.007
			s21.59,9.872,21.59,22.007c0,5.5-2.022,10.772-5.693,14.847c-0.244,0.271-0.347,0.562-0.289,0.818
			c0.056,0.252,0.268,0.467,0.596,0.605c4.291,1.801,9.764,5.505,11.477,12.927c0.541,2.341,0.976,4.231,1.325,5.758
			c0.185,0.809,0.87,1.873,1.427,2.434c2.51,2.534,3.895,5.9,3.898,9.479C183.346,265.78,177.464,271.775,170.234,271.775z
			 M170.229,248.296c-5.47,0-9.921,4.539-9.921,10.117c0,5.578,4.451,10.116,9.921,10.116c5.471,0,9.922-4.538,9.922-10.116
			C180.15,252.835,175.699,248.296,170.229,248.296z M136.249,229.324c-0.259,0-0.812,0.093-1.416,0.298
			c-3.525,1.2-9.693,4.315-11.397,11.698c-0.793,3.444-1.363,5.921-1.767,7.701c-0.184,0.799-0.055,1.535,0.361,2.071
			c0.418,0.537,1.096,0.833,1.908,0.833h4.415c0.428,0,0.824,0.168,1.115,0.474c0.298,0.313,0.451,0.732,0.429,1.178l-0.472,9.448
			c-0.042,0.871,0.247,1.685,0.813,2.293c0.567,0.604,1.348,0.938,2.2,0.941h25.95c0.334,0,0.575-0.098,0.676-0.274
			c0.11-0.192,0.066-0.477-0.123-0.802c-1.194-2.052-1.825-4.393-1.825-6.768c0-7.37,5.882-13.365,13.111-13.365
			c1.35,0,2.688,0.214,3.976,0.638c0.149,0.049,0.287,0.073,0.408,0.073c0.184,0,0.322-0.055,0.409-0.165
			c0.118-0.148,0.143-0.39,0.073-0.7l-0.825-3.577c-1.677-7.266-7.714-10.394-11.164-11.612c-0.583-0.206-1.102-0.279-1.369-0.279
			c-0.175,0-0.22,0.029-0.22,0.029c-0.062,0.082-0.04,0.664,0.243,1.515l3.029,9.124c0.516,1.555,0.351,3.048-0.465,4.206
			c-0.818,1.16-2.155,1.798-3.763,1.798h-23.412c-1.609,0-2.946-0.639-3.763-1.798c-0.816-1.158-0.981-2.651-0.465-4.206
			l3.093-9.319c0.247-0.745,0.339-1.305,0.315-1.451C136.324,229.325,136.278,229.324,136.249,229.324z M158.474,231.461
			c-0.187,0-0.375,0.042-0.558,0.127c-0.459,0.212-0.929,0.405-1.406,0.585c-0.771,0.289-1.639,1.102-1.936,1.814l-3.484,8.35
			c-0.142,0.338-0.136,0.652,0.018,0.882c0.149,0.224,0.425,0.347,0.776,0.347h8.676c0.783,0,1.4-0.263,1.737-0.74
			c0.334-0.477,0.381-1.158,0.13-1.919l-2.863-8.624C159.396,231.776,158.978,231.461,158.474,231.461z M139.255,231.314
			c-0.487,0-0.893,0.309-1.059,0.805l-2.916,8.788c-0.252,0.757-0.206,1.439,0.13,1.919c0.336,0.476,0.953,0.738,1.736,0.738h8.676
			c0.352,0,0.628-0.123,0.777-0.347c0.153-0.23,0.159-0.543,0.017-0.883l-3.525-8.445c-0.293-0.708-1.157-1.534-1.925-1.843
			c-0.453-0.183-0.899-0.381-1.338-0.593C139.64,231.36,139.447,231.314,139.255,231.314z M146.619,233.413
			c-0.285,0-0.494,0.087-0.604,0.253c-0.121,0.182-0.116,0.455,0.014,0.77l2.356,5.645c0.133,0.32,0.305,0.503,0.47,0.503
			s0.336-0.184,0.47-0.503l2.334-5.592c0.131-0.316,0.136-0.592,0.012-0.778c-0.113-0.17-0.336-0.264-0.628-0.264
			c-0.049,0-0.1,0.002-0.153,0.008c-0.642,0.064-1.273,0.097-1.875,0.097c-0.717,0-1.443-0.042-2.219-0.128
			C146.733,233.416,146.675,233.413,146.619,233.413z M153.465,206.088c-0.046,0-0.091,0.02-0.121,0.055
			c-0.058,0.066-0.125,0.149-0.199,0.252c-5.257,7.335-15.563,9.391-21.239,9.964c-0.37,0.037-0.685,0.217-0.864,0.494
			c-0.173,0.266-0.207,0.597-0.095,0.931c2.632,7.916,9.892,13.235,18.067,13.235c3.861,0,7.588-1.182,10.778-3.417
			c0.625-0.438,1.126-0.874,1.178-0.938l0.161-0.108c0.039-0.027,0.54-0.42,1.095-0.964c2.197-2.156,3.875-4.852,4.854-7.798
			c0.107-0.323,0.078-0.648-0.083-0.917c-0.176-0.294-0.497-0.502-0.88-0.569c-6.982-1.222-10.759-6.728-12.389-9.901
			c-0.053-0.104-0.103-0.19-0.148-0.26C153.556,206.109,153.514,206.088,153.465,206.088z M149.014,192.073
			c-10.53,0-19.098,8.734-19.098,19.47c0,0.427,0.019,0.848,0.049,1.268c0.044,0.583,0.626,1.04,1.327,1.04
			c0.051,0,0.104-0.002,0.156-0.008c5.339-0.534,14.995-2.406,19.681-8.944c0.717-1,1.518-1.507,2.382-1.507
			c0.053,0,0.105,0.002,0.159,0.006c0.915,0.069,1.677,0.685,2.266,1.829c1.415,2.755,4.681,7.532,10.652,8.576
			c0.082,0.014,0.163,0.021,0.243,0.021c0.645,0,1.185-0.442,1.229-1.007c0.032-0.418,0.049-0.843,0.049-1.271
			C168.11,200.808,159.543,192.073,149.014,192.073z"/>
		<path fill="#1B427A" d="M149.016,189.661c11.836,0,21.465,9.815,21.465,21.882c0,5.692-2.153,10.87-5.661,14.764
			c-0.558,0.62-0.412,1.301,0.352,1.622c3.885,1.63,9.655,5.264,11.403,12.84c0.541,2.341,0.976,4.231,1.324,5.758
			c0.188,0.821,0.873,1.902,1.46,2.494c2.378,2.4,3.858,5.721,3.862,9.391c0,7.3-5.827,13.239-12.986,13.239
			c-2.582,0-4.989-0.772-6.998-2.087c-0.694-0.455-1.879-0.898-2.703-0.898h-28.09c-1.509,0-2.898-0.6-3.916-1.69
			c-1.019-1.093-1.537-2.538-1.461-4.075l0.352-7.042c0.041-0.843-0.594-1.524-1.419-1.524h-2.056c-1.551,0-2.888-0.62-3.764-1.745
			c-0.873-1.118-1.163-2.579-0.813-4.112c0.404-1.78,0.975-4.259,1.77-7.707c1.78-7.717,7.743-11.351,11.628-12.935
			c0.767-0.313,0.918-0.991,0.363-1.614c-3.459-3.885-5.577-9.029-5.577-14.677C127.551,199.476,137.179,189.661,149.016,189.661
			 M131.292,213.976c0.056,0,0.112-0.003,0.168-0.008c4.897-0.49,14.972-2.3,19.771-8.996c0.693-0.966,1.457-1.455,2.281-1.455
			c0.05,0,0.1,0.002,0.15,0.005c0.869,0.066,1.597,0.66,2.163,1.762c1.505,2.929,4.8,7.603,10.742,8.642
			c0.089,0.016,0.178,0.023,0.265,0.023c0.706,0,1.304-0.493,1.354-1.123c0.032-0.422,0.05-0.849,0.05-1.281
			c0-10.805-8.622-19.597-19.222-19.597c-10.601,0-19.223,8.792-19.223,19.595c0,0.43,0.019,0.854,0.05,1.277
			C129.89,213.476,130.539,213.976,131.292,213.976 M149.014,231.144c4.024,0,7.759-1.273,10.85-3.439
			c0.68-0.477,1.202-0.938,1.21-0.972c0.005-0.03,0.03-0.052,0.058-0.052c0.003,0,0.006,0,0.01,0.001h0
			c0.038,0,0.582-0.421,1.172-1.001c2.196-2.155,3.887-4.842,4.885-7.848c0.265-0.798-0.245-1.506-1.06-1.649
			c-6.841-1.198-10.59-6.508-12.299-9.835c-0.055-0.108-0.107-0.198-0.155-0.271c-0.05-0.076-0.133-0.114-0.219-0.114
			c-0.078,0-0.158,0.032-0.215,0.098c-0.06,0.068-0.129,0.154-0.206,0.261c-5.292,7.384-15.83,9.376-21.15,9.913
			c-0.821,0.083-1.331,0.791-1.065,1.589C133.399,225.558,140.568,231.144,149.014,231.144 M123.938,252.05h4.415
			c0.825,0,1.46,0.682,1.419,1.521l-0.472,9.447c-0.043,0.902,0.256,1.75,0.847,2.385c0.591,0.63,1.405,0.979,2.291,0.981h25.95
			c0.825,0,1.082-0.542,0.661-1.265c-1.145-1.968-1.808-4.257-1.808-6.705c0-7.302,5.828-13.24,12.986-13.24
			c1.373,0,2.695,0.224,3.937,0.631c0.165,0.054,0.314,0.08,0.447,0.08c0.499,0,0.751-0.368,0.604-1.018
			c-0.245-1.056-0.517-2.241-0.825-3.577c-1.708-7.402-7.948-10.538-11.244-11.702c-0.543-0.192-1.081-0.287-1.411-0.287
			c-0.145,0-0.25,0.019-0.296,0.055c-0.151,0.117-0.064,0.855,0.2,1.653l3.029,9.124c0.503,1.516,0.343,2.972-0.448,4.094
			c-0.793,1.124-2.094,1.746-3.661,1.746h-9.853H147h-9.853c-1.569,0-2.869-0.622-3.661-1.746s-0.951-2.579-0.448-4.094l3.093-9.319
			c0.265-0.798,0.392-1.507,0.287-1.588c-0.024-0.019-0.083-0.028-0.169-0.028c-0.282,0-0.855,0.101-1.456,0.305
			c-3.226,1.098-9.729,4.207-11.479,11.788c-0.794,3.445-1.363,5.921-1.768,7.702c-0.192,0.839-0.055,1.61,0.385,2.175
			C122.374,251.738,123.087,252.05,123.938,252.05 M137.147,243.689h8.676c0.827,0,1.233-0.628,0.909-1.403l-3.525-8.445
			c-0.322-0.777-1.225-1.602-1.993-1.911c-0.45-0.181-0.895-0.378-1.33-0.589c-0.21-0.103-0.423-0.151-0.628-0.151
			c-0.522,0-0.986,0.319-1.177,0.891l-2.916,8.788c-0.265,0.796-0.212,1.518,0.146,2.03
			C135.668,243.407,136.321,243.689,137.147,243.689 M151.884,243.691h8.676c0.826,0,1.479-0.284,1.839-0.793
			c0.359-0.512,0.41-1.231,0.146-2.03l-2.863-8.624c-0.192-0.582-0.671-0.908-1.208-0.908c-0.199,0-0.407,0.045-0.61,0.138
			c-0.457,0.211-0.924,0.403-1.397,0.582c-0.774,0.29-1.683,1.105-2.007,1.883l-3.484,8.35
			C150.65,243.063,151.059,243.691,151.884,243.691 M148.854,240.708c0.212,0,0.424-0.193,0.585-0.58l2.334-5.592
			c0.3-0.72-0.023-1.215-0.732-1.215c-0.053,0-0.108,0.002-0.166,0.008c-0.612,0.062-1.233,0.097-1.862,0.097
			c-0.746,0-1.48-0.047-2.205-0.127c-0.066-0.008-0.129-0.011-0.19-0.011c-0.69,0-1.001,0.484-0.706,1.195l2.356,5.646
			C148.431,240.515,148.643,240.708,148.854,240.708 M170.229,268.655c5.542,0,10.047-4.595,10.047-10.241
			c0-5.649-4.505-10.242-10.047-10.242c-5.538,0-10.046,4.593-10.046,10.242C160.183,264.06,164.69,268.655,170.229,268.655
			 M149.016,189.411c-11.974,0-21.715,9.928-21.715,22.132c0,5.487,2.003,10.758,5.641,14.843c0.214,0.241,0.305,0.492,0.255,0.707
			c-0.049,0.21-0.236,0.392-0.526,0.51c-3.608,1.471-9.937,5.131-11.777,13.11c-0.795,3.449-1.365,5.928-1.77,7.708
			c-0.368,1.606-0.063,3.141,0.859,4.321c0.925,1.188,2.332,1.841,3.961,1.841h2.056c0.324,0,0.623,0.127,0.842,0.357
			c0.228,0.239,0.344,0.561,0.327,0.905l-0.352,7.042c-0.08,1.604,0.463,3.116,1.527,4.258c1.065,1.142,2.521,1.77,4.099,1.77h28.09
			c0.787,0,1.923,0.436,2.566,0.857c2.127,1.392,4.595,2.128,7.135,2.128c7.298,0,13.236-6.051,13.236-13.489
			c-0.004-3.612-1.401-7.009-3.935-9.566c-0.544-0.549-1.214-1.587-1.394-2.374c-0.349-1.527-0.783-3.417-1.324-5.758
			c-1.725-7.474-7.233-11.203-11.55-13.015c-0.29-0.122-0.475-0.305-0.523-0.517c-0.048-0.215,0.044-0.466,0.261-0.707
			c3.692-4.098,5.725-9.4,5.725-14.931C170.73,199.339,160.989,189.411,149.016,189.411L149.016,189.411z M131.292,213.726
			c-0.635,0-1.164-0.406-1.202-0.924c-0.033-0.447-0.049-0.859-0.049-1.259c0-10.667,8.511-19.345,18.973-19.345
			c10.461,0,18.972,8.679,18.972,19.347c0,0.411-0.017,0.836-0.049,1.262c-0.04,0.5-0.525,0.892-1.104,0.892
			c-0.073,0-0.147-0.006-0.222-0.019c-5.918-1.035-9.158-5.776-10.563-8.51c-0.609-1.186-1.406-1.824-2.366-1.897
			c-0.057-0.004-0.113-0.006-0.169-0.006c-0.907,0-1.742,0.524-2.484,1.559c-4.657,6.499-14.274,8.361-19.592,8.893
			C131.388,213.723,131.34,213.726,131.292,213.726L131.292,213.726z M149.014,230.894c-8.121,0-15.333-5.284-17.948-13.149
			c-0.099-0.297-0.07-0.59,0.082-0.824c0.159-0.245,0.44-0.404,0.771-0.438c5.697-0.574,16.042-2.64,21.329-10.016
			c0.071-0.098,0.136-0.178,0.191-0.242c0.081,0.056,0.128,0.138,0.178,0.237c1.641,3.195,5.444,8.737,12.479,9.969
			c0.347,0.061,0.637,0.247,0.794,0.51c0.144,0.24,0.168,0.522,0.071,0.814c-0.972,2.927-2.64,5.606-4.823,7.748
			c-0.51,0.5-0.954,0.854-1.078,0.938c-0.091,0.022-0.164,0.081-0.205,0.161c-0.107,0.105-0.557,0.491-1.136,0.897
			C156.551,229.72,152.849,230.894,149.014,230.894L149.014,230.894z M123.938,251.8c-0.773,0-1.416-0.279-1.81-0.785
			c-0.393-0.506-0.513-1.204-0.338-1.966c0.404-1.78,0.974-4.257,1.768-7.701c1.689-7.324,7.815-10.416,11.315-11.607
			c0.532-0.181,1.056-0.281,1.329-0.291c-0.016,0.209-0.102,0.662-0.309,1.286l-3.093,9.319c-0.529,1.593-0.358,3.126,0.481,4.316
			c0.841,1.194,2.214,1.852,3.865,1.852H147h3.707h9.853c1.65,0,3.023-0.658,3.865-1.852c0.839-1.19,1.01-2.723,0.481-4.316
			l-3.029-9.124c-0.231-0.697-0.28-1.202-0.258-1.374c0.024-0.002,0.063-0.005,0.117-0.005c0.257,0,0.759,0.071,1.327,0.272
			c3.426,1.209,9.421,4.314,11.084,11.522l0.367,1.593l0.458,1.984c0.061,0.267,0.043,0.478-0.049,0.593
			c-0.063,0.079-0.167,0.118-0.312,0.118c-0.108,0-0.232-0.022-0.369-0.067c-1.3-0.427-2.651-0.644-4.014-0.644
			c-7.298,0-13.236,6.052-13.236,13.49c0,2.397,0.637,4.759,1.841,6.831c0.164,0.282,0.209,0.528,0.123,0.677
			c-0.078,0.137-0.28,0.212-0.568,0.212h-25.95c-0.816-0.002-1.565-0.323-2.109-0.902c-0.542-0.583-0.819-1.365-0.779-2.202
			l0.472-9.446c0.024-0.481-0.141-0.932-0.463-1.271c-0.314-0.331-0.743-0.513-1.205-0.513H123.938L123.938,251.8z M137.147,243.439
			c-0.742,0-1.323-0.243-1.635-0.685c-0.312-0.446-0.353-1.088-0.113-1.807l2.916-8.789c0.15-0.45,0.502-0.719,0.94-0.719
			c0.173,0,0.347,0.042,0.519,0.126c0.445,0.215,0.897,0.416,1.347,0.597c0.741,0.298,1.573,1.094,1.855,1.774l3.526,8.446
			c0.125,0.3,0.123,0.572-0.006,0.766c-0.125,0.188-0.364,0.291-0.673,0.291H137.147L137.147,243.439z M151.884,243.441
			c-0.309,0-0.547-0.104-0.672-0.292c-0.129-0.194-0.131-0.465-0.006-0.764l3.484-8.35c0.286-0.684,1.122-1.467,1.864-1.745
			c0.515-0.194,0.977-0.387,1.415-0.589c0.167-0.076,0.337-0.115,0.505-0.115c0.449,0,0.82,0.282,0.971,0.736l2.863,8.624
			c0.238,0.722,0.198,1.364-0.114,1.808c-0.313,0.442-0.893,0.687-1.634,0.687H151.884L151.884,243.441z M148.854,240.458
			c-0.088,0-0.231-0.132-0.354-0.426l-2.357-5.646c-0.114-0.274-0.123-0.506-0.025-0.651c0.085-0.127,0.263-0.198,0.5-0.198
			c0.051,0,0.105,0.003,0.162,0.01c0.781,0.087,1.512,0.129,2.233,0.129c0.605,0,1.241-0.033,1.887-0.098
			c0.048-0.004,0.096-0.007,0.141-0.007c0.249,0,0.435,0.074,0.524,0.208c0.1,0.15,0.092,0.385-0.023,0.661l-2.333,5.592
			C149.086,240.327,148.942,240.458,148.854,240.458L148.854,240.458z M170.229,268.405c-5.401,0-9.796-4.482-9.796-9.991
			c0-5.51,4.395-9.992,9.796-9.992c5.402,0,9.797,4.482,9.797,9.992C180.025,263.923,175.63,268.405,170.229,268.405
			L170.229,268.405z"/>
	</g>
	<g>
		<path fill="#1B427A" d="M170.308,261.759c-0.335,0-0.622-0.114-0.852-0.339c-0.232-0.225-0.35-0.559-0.35-0.992
			c0-0.52,0.078-0.961,0.237-1.347c0.158-0.378,0.369-0.714,0.627-1c0.263-0.288,0.608-0.623,1.025-0.996
			c0.372-0.333,0.641-0.581,0.805-0.747c0.158-0.163,0.293-0.345,0.401-0.541c0.103-0.191,0.155-0.399,0.155-0.619
			c0-0.443-0.158-0.808-0.484-1.114c-0.325-0.308-0.736-0.457-1.257-0.457c-0.603,0-1.048,0.154-1.323,0.459
			c-0.291,0.315-0.541,0.79-0.745,1.413c-0.216,0.726-0.636,1.095-1.249,1.095c-0.362,0-0.671-0.131-0.919-0.389
			c-0.249-0.26-0.374-0.547-0.374-0.853c0-0.586,0.186-1.186,0.553-1.782c0.365-0.597,0.905-1.097,1.604-1.487
			c0.699-0.39,1.524-0.587,2.453-0.587c0.863,0,1.636,0.165,2.297,0.491c0.667,0.327,1.189,0.779,1.554,1.343
			c0.364,0.564,0.548,1.188,0.548,1.854c0,0.525-0.106,0.993-0.315,1.389c-0.205,0.389-0.455,0.731-0.741,1.017
			c-0.278,0.278-0.778,0.742-1.497,1.399c-0.191,0.18-0.349,0.338-0.467,0.477c-0.112,0.131-0.196,0.252-0.25,0.359
			c-0.058,0.112-0.1,0.22-0.126,0.322c-0.035,0.118-0.082,0.317-0.146,0.605C171.353,261.402,170.95,261.759,170.308,261.759z"/>
		<path fill="#1B427A" d="M170.614,251.601c0.847,0,1.595,0.159,2.242,0.478c0.649,0.318,1.15,0.751,1.504,1.299
			s0.528,1.143,0.528,1.786c0,0.506-0.1,0.949-0.301,1.33s-0.441,0.71-0.719,0.987s-0.776,0.74-1.493,1.396
			c-0.196,0.185-0.357,0.347-0.478,0.488c-0.119,0.14-0.208,0.268-0.267,0.384c-0.059,0.114-0.105,0.23-0.136,0.347
			c-0.034,0.116-0.082,0.318-0.146,0.61c-0.11,0.619-0.456,0.929-1.042,0.929c-0.302,0-0.558-0.102-0.765-0.304
			c-0.209-0.202-0.313-0.503-0.313-0.902c0-0.503,0.076-0.933,0.228-1.299c0.152-0.364,0.354-0.687,0.604-0.965
			c0.251-0.274,0.59-0.605,1.016-0.986c0.374-0.335,0.646-0.585,0.811-0.753c0.165-0.17,0.307-0.36,0.421-0.568
			c0.112-0.208,0.171-0.435,0.171-0.679c0-0.477-0.176-0.878-0.523-1.205c-0.347-0.328-0.794-0.491-1.343-0.491
			c-0.643,0-1.115,0.167-1.416,0.5c-0.305,0.33-0.561,0.815-0.771,1.458c-0.2,0.673-0.577,1.009-1.13,1.009
			c-0.328,0-0.604-0.117-0.829-0.351c-0.225-0.235-0.339-0.491-0.339-0.766c0-0.565,0.178-1.137,0.534-1.717
			c0.356-0.582,0.876-1.063,1.559-1.443C168.906,251.791,169.705,251.601,170.614,251.601 M170.614,251.351
			c-0.95,0-1.795,0.203-2.513,0.604c-0.718,0.4-1.273,0.916-1.65,1.531c-0.378,0.616-0.571,1.238-0.571,1.847
			c0,0.339,0.137,0.655,0.408,0.938c0.273,0.285,0.613,0.428,1.01,0.428c0.463,0,1.078-0.206,1.37-1.188
			c0.196-0.6,0.437-1.059,0.714-1.36c0.252-0.279,0.666-0.419,1.232-0.419c0.487,0,0.87,0.138,1.171,0.423
			c0.3,0.282,0.445,0.617,0.445,1.023c0,0.198-0.047,0.387-0.141,0.56c-0.102,0.185-0.229,0.358-0.38,0.513
			c-0.148,0.151-0.395,0.38-0.798,0.741c-0.42,0.375-0.768,0.713-1.033,1.003c-0.269,0.298-0.487,0.647-0.65,1.037
			c-0.167,0.402-0.247,0.858-0.247,1.396c0,0.468,0.131,0.833,0.389,1.082c0.254,0.248,0.57,0.374,0.938,0.374
			c0.71,0,1.156-0.393,1.288-1.135c0.061-0.274,0.107-0.471,0.14-0.584c0.026-0.1,0.065-0.2,0.119-0.303
			c0.05-0.1,0.128-0.212,0.234-0.336c0.106-0.125,0.252-0.274,0.458-0.468c0.808-0.739,1.243-1.146,1.499-1.401
			c0.295-0.295,0.552-0.647,0.763-1.047c0.219-0.414,0.33-0.901,0.33-1.447c0-0.691-0.191-1.337-0.568-1.922
			c-0.376-0.583-0.916-1.05-1.604-1.388C172.288,251.52,171.497,251.351,170.614,251.351L170.614,251.351z"/>
	</g>
	<g>
		<path fill="#1B427A" d="M170.404,265.242c-0.386,0-0.728-0.129-1.015-0.383c-0.293-0.26-0.441-0.624-0.441-1.082
			c0-0.408,0.142-0.756,0.421-1.035c0.28-0.279,0.628-0.42,1.035-0.42c0.402,0,0.744,0.142,1.017,0.421
			c0.274,0.278,0.413,0.626,0.413,1.034c0,0.452-0.146,0.813-0.435,1.075C171.114,265.11,170.779,265.242,170.404,265.242z"/>
		<path fill="#1B427A" d="M170.404,262.447c0.367,0,0.678,0.128,0.928,0.384c0.252,0.256,0.377,0.571,0.377,0.946
			c0,0.417-0.131,0.744-0.394,0.982s-0.566,0.357-0.911,0.357c-0.356,0-0.666-0.116-0.933-0.352
			c-0.266-0.236-0.398-0.567-0.398-0.988c0-0.375,0.128-0.69,0.385-0.946S170.03,262.447,170.404,262.447 M170.404,262.197
			c-0.441,0-0.818,0.154-1.123,0.457c-0.304,0.303-0.458,0.681-0.458,1.124c0,0.495,0.162,0.89,0.482,1.175
			c0.312,0.275,0.681,0.415,1.099,0.415c0.407,0,0.77-0.142,1.079-0.422c0.315-0.286,0.476-0.679,0.476-1.167
			c0-0.442-0.151-0.819-0.449-1.122C171.213,262.351,170.841,262.197,170.404,262.197L170.404,262.197z"/>
	</g>
</g>
<path fill="#1B427A" d="M291,191.655l-0.073,11.735l-3.428-2.141c-0.925,1.348-1.866,2.633-2.81,3.89
	c0.19,0.337,0.311,0.72,0.311,1.13V269h0.74c1.279,0,2.322,1.197,2.322,2.5c0,1.294-1.043,2.5-2.322,2.5h-70.409
	c-1.288,0-2.331-1.402-2.331-2.695v-71.122c0-1.303,1.217-2.351,2.505-2.351c1.278,0,2.495,1.048,2.495,2.351v31.953
	c7,1.112,40.45,3.572,65.709-33.365l-2.98-1.795L291,191.655z M280,268.936v-58.421c-3,3.316-5,6.232-8,8.783V269h8.352L280,268.936
	L280,268.936z M267,269v-45.984c-2,1.03-3,1.996-4,2.888V269H267z M258,269v-40.363c-3,1.613-6,2.934-9,4.019V269H258L258,269z
	 M245,269v-34.778c-2,0.501-4,0.92-5,1.267V269H245z M235,269v-32.627c-3,0.501-6,0.738-9,0.811V269H235L235,269z M222,269v-31.853
	c-2-0.073-3-0.191-4-0.31V269H222z"/>
<g>
	<path fill="#1B427A" d="M397.253,214.825l-24.071-24.355c-1.12-1.135-2.64-1.785-4.164-1.785c-1.404,0-2.704,0.537-3.667,1.51
		l-6.688,6.768c-1.042,1.051-1.581,2.539-1.482,4.078c0.093,1.431,0.717,2.798,1.754,3.846l3.302,3.342l-37.632,38.075
		c-2.333,2.358-3.617,5.498-3.617,8.835c0,3.338,1.284,6.474,3.617,8.836c2.334,2.361,5.436,3.66,8.733,3.66s6.399-1.299,8.733-3.66
		l33.56-33.953c0-0.003,0-0.003,0.002-0.003l4.07-4.118l3.301,3.337c1.12,1.138,2.639,1.788,4.167,1.788
		c1.401,0,2.704-0.537,3.667-1.511l6.688-6.767C399.609,220.639,399.486,217.085,397.253,214.825z M338.393,260.359
		c-1.351,1.367-3.147,2.066-5.057,2.066c-1.91,0-3.705-0.779-5.057-2.146c-1.351-1.367-2.094-3.197-2.094-5.128
		s0.743-3.65,2.094-5.017L347.289,231h20.226L338.393,260.359z M387.17,225.763c-0.119,0-0.31-0.064-0.489-0.245l-5.141-5.2
		c-1.016-1.027-2.66-0.791-3.676,0.237L372.716,226h-20.227l15.262-15.676c1.016-1.027,1.016-2.811,0-3.839l-5.14-5.261
		c-0.233-0.234-0.257-0.505-0.272-0.512l6.679-6.751c0.119,0,0.31,0.057,0.487,0.237l24.071,24.351
		c0.233,0.234,0.254,0.473,0.272,0.48L387.17,225.763z"/>
	<path fill="#1B427A" d="M385.578,240.71c-1.804,2.469-7.688,10.879-7.688,15.404c0,5.453,4.388,9.893,9.778,9.893
		s9.778-4.439,9.778-9.893c0-4.525-5.885-12.935-7.689-15.404C388.78,239.367,386.558,239.367,385.578,240.71z M387.669,260.747
		c-2.522,0-4.576-2.079-4.576-4.632c0-1.47,2.114-5.458,4.576-9.24c2.465,3.778,4.577,7.766,4.577,9.24
		C392.246,258.667,390.191,260.747,387.669,260.747z"/>
</g>
<g>
	<path fill="#1B427A" d="M440.773,236.326L440,236.287V230h0.266c2.448,0,3.667,0.776,3.667,2.714l0.02,0.286H448v-0.47
		c0-2.57-0.26-4.322-1.492-5.269c-1.229-0.944-3.508-1.417-6.508-1.417V223h-3v2.844c-4,0-6.121,0.493-7.416,1.477
		c-1.287,0.99-2.048,2.819-2.048,5.497c0,2.759,0.813,4.64,2.097,5.647c1.288,1.002,3.367,1.506,7.367,1.506v7.085l-0.887-0.017
		c-1.801,0-2.882-0.23-3.403-0.7c-0.522-0.467-0.71-1.504-0.71-3.116V243h-4.842l-0.012,0.77c0,2.644,0.641,4.438,1.92,5.5
		c1.279,1.067,3.715,1.573,6.863,1.573l1.07-0.012V254h3v-3.169l0.699-0.017c3.162,0,5.26-0.556,6.528-1.67
		c1.265-1.115,1.846-3.052,1.846-5.815c0-2.565-0.497-4.33-1.657-5.29C446.256,237.077,444.094,236.502,440.773,236.326z
		 M437,236.141c-1-0.026-0.857-0.035-0.883-0.035c-2.633,0-4.058-1.084-4.058-3.252c0-2.068,1.488-3.107,4.13-3.107l0.811-0.018
		V236.141z M440.209,247H440v-6.867c2,0,3.131,0.213,3.77,0.637c0.635,0.42,0.846,1.276,0.846,2.608
		C444.615,245.816,443.073,247,440.209,247z M447.929,210H428.25c-8.082,0-14.25,6.502-14.25,14.496v28.169
		c0,7.993,6.168,14.335,14.25,14.335h19.679c8.082,0,15.071-6.342,15.071-14.335v-28.169C463,216.502,456.011,210,447.929,210z
		 M458,252.661c0,5.559-4.446,10.339-10.071,10.339H428.25c-5.625,0-10.25-4.781-10.25-10.339v-28.168
		c0-5.562,4.625-10.493,10.25-10.493h19.679c5.625,0,10.071,4.931,10.071,10.493V252.661z M448.04,204l7.352-19h-34.604l7.354,19
		H448.04z M448.94,190l-3.979,10h-13.745l-3.979-10H448.94z M423,206h30v2h-30V206z"/>
</g>
<g>
	<g>
		<path fill="#1B427A" d="M71.169,317.246c16.725,0,30.331,13.684,30.331,30.5c0,16.818-13.606,30.5-30.331,30.5
			c-5.753,0-11.354-1.627-16.194-4.709c-4.707-2.994-8.504-7.225-10.979-12.232l6.121-3.059
			c4.002,8.097,12.069,13.127,21.053,13.127c12.956,0,23.496-10.6,23.496-23.627s-10.54-23.627-23.496-23.627
			c-8.983,0-17.051,5.031-21.053,13.129l-6.121-3.059c2.476-5.01,6.272-9.24,10.979-12.234
			C59.815,318.875,65.416,317.246,71.169,317.246 M71.169,314.246c-6.324,0-12.481,1.79-17.805,5.178
			c-5.17,3.289-9.34,7.936-12.059,13.437l-1.323,2.678l2.672,1.335l6.121,3.059l2.695,1.347l1.335-2.701
			c3.493-7.067,10.529-11.458,18.363-11.458c11.302,0,20.496,9.253,20.496,20.627s-9.194,20.627-20.496,20.627
			c-7.834,0-14.871-4.39-18.363-11.456l-1.335-2.701l-2.695,1.347l-6.121,3.059l-2.672,1.335l1.324,2.678
			c2.719,5.501,6.889,10.146,12.059,13.435c5.32,3.387,11.477,5.178,17.805,5.178c18.379,0,33.331-15.028,33.331-33.5
			S89.548,314.246,71.169,314.246L71.169,314.246z"/>
	</g>
	<g>
		<path fill="#1B427A" d="M28.169,335.006l4.833,4.706L28.584,344H71v7H28.583l4.419,4.535l-4.833,4.905L15.5,347.723
			L28.169,335.006 M28.169,330.751l-2.127,2.14l-12.669,12.74l-2.104,2.115l2.104,2.115l12.669,12.74l2.127,2.139l2.127-2.139
			l4.833-4.859l2.104-2.207L35.798,354h35.371H74v-2.816v-6.873V341h-2.831H35.798l1.435-1.288l-2.103-2.038l-4.833-4.822
			L28.169,330.751L28.169,330.751z"/>
	</g>
</g>
<g>
	<g>
		<path fill="#1B427A" d="M176.925,320c1.341,0,2.773,0.655,4.754,2.313c4.192,3.502,7.923,6.693,7.923,6.693
			s0.844,0.699,2.246,0.699c0.283,0,0.587-0.028,0.913-0.097c4.765-1.001,12.239-2.663,12.239-2.663v23.45
			c0,0-5.054,0.989-6.095,1.118c-0.515,0.064-1.578,0.355-2.807,0.355c-1.247,0-2.665-0.299-3.855-1.436
			c-3.646-3.47-16.595-16.26-16.595-16.26s-1.089-1.062-2.967-1.062c-0.812,0-1.77,0.198-2.852,0.766
			c-3.291,1.723-8.17,4.247-10.207,5.23c-0.853,0.451-1.673,0.644-2.434,0.644c-2.676,0-4.611-2.383-4.611-4.299
			c0-1.909,1.199-3.205,2.913-4.157c4.646-2.798,14.44-8.257,18.519-10.409C175.046,320.339,175.962,320,176.925,320
			 M156.38,320.354c4.775,0,6.954,2.743,6.954,2.743s-7.154,3.779-10.262,5.915c-2.211,1.37-3.693,3.63-3.693,6.402
			c0,4.273,3.495,7.586,7.803,7.586c0.006,0,0.012,0,0.018,0c0.76,0,2.356-0.209,4.566-1.36c2.028-0.947,4.723-2.112,6.816-3.023
			c0.671-0.292,1.305-0.366,1.885-0.366c2,0,3.358,1.362,3.358,1.362c7.528,7.492,0.948,0.965,14.937,14.856
			c0.018,0.012,0.041,0.029,0.06,0.04c1.332,1.335,1.332,3.499,0,4.822c-0.669,0.661-1.548,0.992-2.426,0.992
			c-0.878,0-1.755-0.33-2.419-0.991c-0.011-0.012-5.211-5.328-6.002-5.328c-0.031,0-0.055,0.009-0.072,0.025
			c-0.442,0.443,5.229,6.33,5.254,6.401c1.114,1.331,1.088,3.307-0.17,4.556c-0.66,0.655-1.521,0.979-2.385,0.979
			c-0.83,0-1.663-0.298-2.321-0.887c-0.011,0-7.016-6.491-7.884-6.491c-0.029,0-0.051,0.007-0.065,0.021
			c-0.458,0.455,5.559,5.778,5.559,5.778c0.102,0.104,0.375,0.363,0.44,0.426c1.332,1.328,1.335,3.487,0,4.813
			c-0.669,0.662-1.548,0.992-2.426,0.992s-1.755-0.33-2.421-0.992c-0.109-0.112-5.83-6.022-6.514-6.022
			c-0.021,0-0.037,0.006-0.048,0.017c-0.383,0.384,4.381,5.333,4.429,5.38c1.335,1.332,1.329,3.491,0,4.815
			c-0.669,0.663-1.548,0.994-2.426,0.994s-1.756-0.331-2.422-0.994c-0.681-0.681-1.772-1.889-1.802-1.928
			c-0.003-0.006-0.009-0.006-0.012-0.006c0.389-2.414-0.253-4.918-2.063-6.764c-0.922-0.937-2.066-1.618-3.332-1.984
			c-0.311-1.337-0.976-2.571-1.974-3.593c-0.885-0.904-1.982-1.565-3.193-1.938c-0.326-1.228-0.957-2.351-1.866-3.28
			c-0.883-0.903-1.981-1.563-3.194-1.934c-0.323-1.234-0.956-2.351-1.862-3.286c-1.491-1.525-3.589-2.286-5.729-2.286
			c-2.18,0-4.404,0.79-6.074,2.37c-1.009,0.973-1.735,2.151-2.186,3.427c-1.994-0.809-4.214-1.447-4.214-1.447v-26.834l7.773,2.688
			c1.252,0.503,2.388,0.677,3.359,0.677c2.157,0,3.502-0.855,3.502-0.855S151.607,320.354,156.38,320.354 M139.468,350.381
			c1.147,0,2.258,0.415,3.08,1.252c1.087,1.109,1.318,2.687,0.9,4.166c0.393-0.09,0.79-0.137,1.182-0.137
			c1.11,0,2.179,0.373,2.98,1.183c1.086,1.112,1.318,2.689,0.897,4.171c0.393-0.089,0.791-0.136,1.184-0.136
			c1.111,0,2.18,0.37,2.978,1.182c1.202,1.228,1.412,3.018,0.785,4.618c0.505-0.157,1.023-0.238,1.533-0.238
			c1.116,0,2.191,0.388,2.996,1.207c1.697,1.739,1.513,4.645-0.417,6.478c-1.173,1.112-3.091,1.88-4.801,1.88
			c-1.111,0-2.134-0.324-2.809-1.088c-1.718-1.926-0.381-3.645,0.243-5.238c-0.909,0.28-2.08,0.705-3.197,0.705
			c-0.871,0-1.71-0.259-2.366-1.048c-1.481-1.796-0.285-3.31,0.134-4.783c-0.861,0.193-1.933,0.661-2.98,0.661
			c-0.781,0-1.548-0.26-2.205-1.087c-1.541-1.937-0.29-3.312,0.128-4.792c-0.862,0.195-1.877,0.668-2.911,0.668
			c-0.767,0-1.543-0.261-2.274-1.09c-1.717-1.955-0.485-5.276,1.438-7.109C136.968,350.857,138.238,350.381,139.468,350.381
			 M176.925,317c-1.757,0-3.23,0.66-4.317,1.234c-1.506,0.795-3.875,2.086-6.494,3.539l-0.431-0.543
			c-0.315-0.396-3.254-3.877-9.303-3.877c-5.327,0-14.378,5.675-16.316,6.932c-0.134,0.07-0.842,0.412-1.931,0.412
			c-0.727,0-1.48-0.154-2.24-0.46l-0.069-0.028l-0.07-0.023l-7.773-2.688L124,320.12v4.212v26.834v2.257l2.17,0.626
			c0.021,0.006,2.1,0.607,3.917,1.345l0.671,0.271c-0.227,1.858,0.193,3.721,1.518,5.229c1,1.134,2.233,1.828,3.608,2.041
			c0.119,0.949,0.502,1.989,1.355,3.062c0.973,1.225,2.247,1.963,3.719,2.163c0.11,0.973,0.493,2.027,1.366,3.087
			c0.71,0.854,1.916,1.845,3.802,2.085c0.075,1.131,0.501,2.36,1.593,3.584c1.188,1.345,2.984,2.091,5.048,2.091
			c2.476,0,5.106-0.977,6.865-2.643c0.454-0.431,0.853-1.363,1.192-1.363h0.547c0.387,0,0.782,0.769,1.009,0.995
			c1.216,1.21,2.828,1.843,4.543,1.843c1.714,0,3.326-0.676,4.538-1.878c0.691-0.688,1.205-1.511,1.521-2.399
			c0.303,0.043,0.611,0.061,0.922,0.061c1.712,0,3.323-0.662,4.535-1.861c0.8-0.794,1.363-1.76,1.657-2.813
			c0.167,0.013,0.336,0.019,0.505,0.019c1.7,0,3.298-0.657,4.5-1.85c1.073-1.066,1.689-2.416,1.838-3.813
			c1.508-0.124,2.909-0.766,3.993-1.836c1.217-1.209,1.886-2.814,1.89-4.524c0.002-1.051-0.246-2.063-0.717-2.968
			c1.179,0.594,2.515,0.895,3.995,0.895c1.176,0,2.171-0.189,2.83-0.315c0.14-0.026,0.259-0.051,0.354-0.063
			c1.082-0.135,5.433-0.982,6.294-1.15l2.424-0.475v-2.47v-23.45v-3.74l-3.651,0.812c-0.074,0.017-7.512,1.67-12.205,2.656
			c-0.102,0.021-0.202,0.032-0.296,0.032c-0.039,0-0.332-0.01-0.332-0.01c-0.001-0.001-3.755-3.212-7.913-6.686
			C181.115,317.929,179.055,317,176.925,317L176.925,317z"/>
	</g>
</g>
<g>
	<g>
		<path fill="#1B427A" d="M319,355.402V338h-7.203c-0.801-3-2.029-5.738-3.664-8.469l4.813-4.624l-12.12-11.892l-4.9,4.777
			c-2.769-1.613-5.925-2.795-8.925-3.582V308h-17v6.211c-3,0.789-6.056,2-8.824,3.613l-4.807-4.746l-12.116,11.953l4.814,4.5
			c-1.635,2.73-2.863,5.469-3.662,8.469H239v17h6.405c0.8,3,2.029,6.188,3.664,8.918l-4.813,4.849l12.12,12.003l4.817-4.724
			c0.563,0.321,1.17,0.649,1.803,0.964c-0.067,0.298-0.11,0.611-0.11,0.93c0,1.5,0.803,2.816,2.001,3.565
			c-0.354,0.616-0.573,1.317-0.573,2.073c0,1.501,0.803,2.815,2.001,3.565c-0.354,0.615-0.573,1.095-0.573,1.852
			c0,2.33,1.923,4.005,4.286,4.005h17.143c2.363,0,4.286-1.675,4.286-4.005c0-0.757-0.219-1.347-0.573-1.962
			c1.199-0.75,2.001-2.007,2.001-3.509c0-0.756-0.219-1.428-0.573-2.044c1.199-0.749,2.001-2.049,2.001-3.549
			c0-0.318-0.043-0.618-0.11-0.917c0.631-0.313,1.24-0.626,1.803-0.948l4.817,4.751l12.12-11.952l-4.813-4.948
			c1.638-2.729,2.866-5.917,3.664-8.917H319V355.402L319,355.402z M267.487,379c-0.767,0-1.389-0.744-1.389-1.501
			c0-0.756,0.623-1.499,1.389-1.499h22.228c0.767,0,1.389,0.743,1.389,1.499c0,0.757-0.622,1.501-1.389,1.501h-1.389h-19.449
			H267.487z M274,361.601c0,0.331,2.115,0.399,3.038,0.399H277v4h3v-4h0.164c0.922,0,1.836-0.068,2.836-0.399V373h-9V361.601
			L274,361.601z M289.714,382.5c0,0.756-0.623,1.5-1.389,1.5h-1.389h-16.671h-1.389c-0.767,0-1.389-0.744-1.389-1.5
			s0.622-1.5,1.389-1.5h19.449C289.092,381,289.714,381.744,289.714,382.5z M286.936,390h-16.67c-0.767,0-1.39-0.744-1.39-1.5
			s0.623-1.5,1.39-1.5h16.67c0.767,0,1.389,0.744,1.389,1.5S287.703,390,286.936,390z M308.43,353.836
			c-0.768,3.416-2.127,6.532-4.039,9.494l-0.6,0.869l4.279,4.191l-7.857,7.733l-4.28-4.227l-0.941,0.587
			c-0.807,0.508-1.728,0.953-2.727,1.439c-0.708-0.545-1.585-0.924-2.55-0.924H286v-13.553c0-1.119,1-2.498,1-4.009v-0.343
			c0-3.683-3.102-7.096-6.836-7.096h-3.126c-2.202,0-4.038-1.351-4.038-3.521v-0.344c0-2.171,1.836-4.135,4.038-4.135h3.126
			c2.202,0,3.836,1.964,3.836,4.135V344h3v0.135c0-3.682-3.102-7.135-6.836-7.135H280v-4h-3v4h0.038
			c-3.734,0-7.038,3.452-7.038,7.135v0.342c0,3.684,3.304,6.523,7.038,6.523h3.125c2.202,0,3.836,1.924,3.836,4.096v0.342
			c0,2.172-1.635,3.563-3.836,3.563h-3.125c-2.202,0-3.994-1-3.994-4h-2.778c0,2,0.734,3.325,1.734,4.446V373h-4.513
			c-0.965,0-1.842,0.377-2.55,0.922c-0.999-0.486-1.92-0.953-2.728-1.462l-0.94-0.581l-4.28,4.226l-7.857-7.747l4.279-4.22
			l-0.599-0.928c-1.913-2.961-3.271-5.955-4.04-9.374L248.53,353H242v-11h6.53l0.242-1.29c0.768-3.417,2.127-6.759,4.04-9.722
			l0.599-0.981l-4.279-4.247l7.857-7.764l4.28,4.214l0.94-0.595c3.002-1.887,6.259-3.228,9.725-3.985l1.066-0.24V311h11v6.39
			l1.167,0.238c3.464,0.757,6.782,2.098,9.786,3.984l0.961,0.591l4.29-4.221l7.862,7.75l-4.276,4.221l0.601,0.928
			c1.912,2.96,3.271,6.41,4.039,9.829l0.243,1.29H315v11h-6.328L308.43,353.836z"/>
	</g>
</g>
<g>
	<path fill-rule="evenodd" clip-rule="evenodd" fill="#3D3A3F" d="M382,313.648c0-0.424,0.35-0.648,0.786-0.648h6.519l-2.766-2.822
		c-0.306-0.299-0.306-0.845,0-1.148l0.742-0.757c0.305-0.298,0.803-0.312,1.115-0.014l5.372,5.24
		c0.153,0.149,0.231,0.343,0.231,0.54c0,0.196-0.078,0.392-0.231,0.541l-5.372,5.248c-0.307,0.299-0.805,0.299-1.115,0l-0.742-0.727
		c-0.306-0.298-0.306-0.444,0-0.749l2.766-2.353h-6.515c-0.434,0-0.786-0.625-0.786-1.049L382,313.648z"/>
</g>
<g>
	<path fill-rule="evenodd" clip-rule="evenodd" fill="#FFFFFF" d="M406,312.607c0-0.352,0.291-0.607,0.655-0.607h5.432l-2.305-2.276
		c-0.255-0.248-0.255-0.668,0-0.92l0.618-0.612c0.256-0.246,0.67-0.251,0.93-0.004l4.478,4.361c0.127,0.124,0.192,0.286,0.192,0.45
		c0,0.163-0.065,0.327-0.192,0.45l-4.478,4.363c-0.254,0.248-0.67,0.248-0.93,0l-0.618-0.604c-0.255-0.248-0.255-0.186,0-0.438
		l2.305-1.771h-5.429c-0.361,0-0.655-0.739-0.655-1.091L406,312.607z"/>
</g>
<g>
	<path fill-rule="evenodd" clip-rule="evenodd" fill="#FFFFFF" d="M452.107,311.522c-0.004,0.029-0.021,0.117-0.054,0.268
		c-0.122,0.545-0.302,1.073-0.536,1.581c-0.861,2.033-2.76,5.157-6.912,8.503c-0.104,0.084-0.23,0.126-0.355,0.126
		s-0.251-0.042-0.355-0.126c-4.157-3.346-6.051-6.47-6.913-8.503c-0.233-0.508-0.414-1.04-0.535-1.581
		c-0.033-0.15-0.05-0.238-0.054-0.268c-0.097-0.495-0.143-1.003-0.143-1.506c0-4.419,3.588-8.017,7.996-8.017
		c4.407,0,7.995,3.598,8.004,8.017C452.25,310.52,452.199,311.027,452.107,311.522z M444.246,303.128
		c-3.785,0-6.867,3.09-6.867,6.885c0,0.44,0.042,0.876,0.126,1.308c0,0.013,0.004,0.021,0.004,0.029
		c0.004,0.021,0.013,0.084,0.038,0.181c0,0.004,0,0.004,0,0.009c0.108,0.47,0.263,0.931,0.464,1.366
		c0.004,0.005,0.004,0.013,0.008,0.018c0.782,1.857,2.497,4.691,6.228,7.781c3.729-3.09,5.444-5.924,6.227-7.781
		c0.004-0.005,0.004-0.013,0.008-0.018c0.205-0.439,0.36-0.896,0.465-1.366c0-0.005,0-0.005,0-0.009
		c0.021-0.097,0.033-0.159,0.037-0.181c0-0.008,0.005-0.017,0.005-0.024c0.083-0.428,0.125-0.868,0.125-1.313
		C451.112,306.218,448.03,303.128,444.246,303.128z M444.246,315.195c-2.798,0-5.077-2.285-5.077-5.091
		c0-2.805,2.279-5.09,5.077-5.09c2.797,0,5.076,2.285,5.076,5.09C449.322,312.91,447.043,315.195,444.246,315.195z M444.246,306.146
		c-2.175,0-3.948,1.778-3.948,3.958c0,2.181,1.77,3.958,3.948,3.958s3.947-1.777,3.947-3.958
		C448.193,307.925,446.42,306.146,444.246,306.146z"/>
</g>
<g>
	<path fill-rule="evenodd" clip-rule="evenodd" fill="#FFFFFF" d="M471.858,318.813c0.94-0.83,2.109-3.509,0-5.64
		c-1.248-1.215-3.104-1.499-4.637-0.714c-0.449-0.415-2.223-2.188-2.639-2.638c0.786-1.534,0.501-3.39-0.713-4.639
		c-2.13-2.109-4.809-0.94-5.639,0c-2.244,2.244-0.766,4.573,0,5.781c1.084,1.739,4.314,5.637,7.848,7.849
		C467.293,319.571,469.619,321.054,471.858,318.813z M466.758,317.599c-3.7-2.405-6.311-5.761-7.313-7.314
		c-0.356-0.535-1.708-2.278-0.179-4.034c0.405-0.464,2.145-1.424,3.567,0c0.892,0.892,0.998,2.247,0.251,3.283
		c-0.213,0.284-0.179,0.642,0.034,0.926c0.538,0.59,2.867,2.923,3.457,3.458c0.285,0.213,0.642,0.251,0.927,0.034
		c1.035-0.747,2.391-0.642,3.282,0.251c1.423,1.424,0.463,3.166,0,3.568C469.032,319.307,467.297,317.948,466.758,317.599z"/>
</g>
<g>
	<path fill-rule="evenodd" clip-rule="evenodd" fill="#FFFFFF" d="M493.043,315.371v-4.277h-14.004v4.277h-2.906v-6.107
		c0-0.529,0.434-0.961,0.969-0.961h17.882c0.532,0,0.962,0.432,0.963,0.961v6.107H493.043z M478.88,309.121
		c-0.423,0-0.771,0.344-0.771,0.768s0.348,0.766,0.771,0.766c0.426,0,0.773-0.342,0.774-0.766
		C479.654,309.465,479.306,309.121,478.88,309.121z M493.874,309.266h-13.397v0.922h13.397V309.266z M480.477,303.041h11.128v3.174
		h-11.128V303.041z M482.438,314.238h7.08v1.215h-7.08V314.238z M489.584,318.205h-7.082v-1.213h7.082V318.205z M481.743,319.658
		l2.348-0.014h6.232l0.016-7.418h1.405v7.232c0,0.828-0.113,1.5-0.998,1.5c0,0-8.059,0-9.261,0c-1.199,0-1.146-1.162-1.146-1.162
		v-7.57h1.404V319.658z"/>
</g>
<g>
	<g>
		<path fill="#FFFFFF" d="M515.556,304.497c0.092,0,0.183,0.036,0.252,0.104c0.101,0.1,0.134,0.249,0.086,0.383l-4.779,13.164
			c-0.121,0.332-0.39,0.589-0.727,0.692c-0.107,0.033-0.218,0.049-0.327,0.049c-0.236,0-0.469-0.074-0.662-0.216l-4.468-3.271
			l10.264-10.176l-11.607,9.19l-3.268-2.394c-0.299-0.218-0.454-0.583-0.406-0.952c0.049-0.368,0.294-0.68,0.639-0.813l14.874-5.736
			C515.468,304.505,515.512,304.497,515.556,304.497 M502.812,315.212l3.862,2.785c0.031,0.045-1.123,0.806-2.006,1.379
			c-0.128,0.083-0.275,0.126-0.424,0.126c-0.105,0-0.212-0.021-0.312-0.065c-0.24-0.105-0.412-0.322-0.459-0.582l-0.635-3.489
			L502.812,315.212 M515.556,303.497c-0.17,0-0.337,0.031-0.495,0.094l-14.868,5.734c-0.688,0.267-1.174,0.885-1.271,1.614
			c-0.096,0.735,0.215,1.459,0.809,1.893l1.888,1.382l0.209,1.174l0.027,0.153l0.636,3.492c0.105,0.586,0.494,1.079,1.04,1.319
			c0.228,0.099,0.467,0.149,0.714,0.149c0.344,0,0.679-0.1,0.968-0.287c1.633-1.06,2.131-1.39,2.317-1.67l1.278,0.936
			c0.366,0.268,0.799,0.409,1.253,0.409c0.21,0,0.419-0.031,0.62-0.093c0.633-0.194,1.146-0.683,1.373-1.306l4.78-13.166
			c0.179-0.502,0.052-1.063-0.322-1.435C516.255,303.637,515.915,303.497,515.556,303.497L515.556,303.497z"/>
	</g>
</g>
<g>
	<path fill-rule="evenodd" clip-rule="evenodd" fill="#502E61" d="M93,443c-10.941,0-19.809-8.954-19.809-20S82.059,403,93,403
		c10.939,0,19.808,8.954,19.808,20S103.94,443,93,443z M93,406.125c-9.231,0-16.714,7.555-16.714,16.875S83.769,439.875,93,439.875
		c9.23,0,16.713-7.555,16.713-16.875S102.231,406.125,93,406.125z M100.922,418.626c0,0.023,0.003,0.046,0.003,0.067
		c0,0.018-0.003,0.037-0.003,0.057c0,0.007,0.003,0.016,0.003,0.024c0.275,7.166-4.845,12.976-11.438,12.976
		c-2.32,0-4.512-0.72-6.392-1.966c2.768,0.478,5.004-1.02,5.659-1.843c-1.839,0-3.522-1.709-3.652-3.018
		c0.371,0.063,1.22,0.143,1.701-0.139c-2.496-0.744-3.182-2.795-3.152-4.342c0.417,0.441,1.305,0.541,1.784,0.501
		c-1.406-0.945-2.477-3.538-1.239-5.87c2.017,2.855,5.596,4.523,8.657,4.609h0.001c-0.068-0.318-0.105-0.649-0.105-0.99
		c0-2.454,1.831-4.443,4.087-4.443c1.163,0,2.21,0.527,2.955,1.374c-0.002-0.001-0.002-0.003-0.002-0.003
		c0.653,0,1.975-0.582,2.55-0.981c-0.219,0.913-1.104,2.063-1.703,2.413c0.934-0.101,1.935-0.499,2.268-0.699
		C102.328,417.394,101.522,418.182,100.922,418.626z"/>
</g>
<g>
	<path fill-rule="evenodd" clip-rule="evenodd" fill="#502E61" d="M143.809,443c-10.94,0-19.809-8.954-19.809-20s8.868-20,19.809-20
		s19.809,8.954,19.809,20S154.749,443,143.809,443z M143.809,406.125c-9.231,0-16.714,7.555-16.714,16.875
		s7.482,16.875,16.714,16.875c9.23,0,16.713-7.555,16.713-16.875S153.039,406.125,143.809,406.125z M150.096,433h-12.573
		c-1.998,0-3.618-1.675-3.618-3.734v-3.461c0-2.063,1.62-3.734,3.618-3.734h12.573c1.999,0,3.617,1.672,3.617,3.734v3.461
		C153.713,431.325,152.095,433,150.096,433z M140.219,423.898h-2.706v0.908h0.886v6.361h0.906v-6.361h0.914V423.898z
		 M142.904,425.738h-0.889v4.192c-0.089,0.103-0.242,0.193-0.349,0.261c-0.105,0.071-0.251,0.105-0.318,0.105
		c-0.089,0-0.152-0.027-0.193-0.078c-0.039-0.054-0.06-0.137-0.06-0.252v-4.229h-0.913v4.565c0,0.295,0.082,0.514,0.193,0.662
		c0.11,0.149,0.274,0.222,0.492,0.222c0.179,0,0.361-0.048,0.548-0.158c0.189-0.104,0.37-0.317,0.544-0.513l0,0v0.656h0.944V425.738
		z M146.51,426.867c0-0.407-0.079-0.719-0.235-0.932c-0.154-0.212-0.387-0.323-0.683-0.323c-0.148,0-0.293,0.04-0.438,0.119
		c-0.136,0.08-0.329,0.197-0.459,0.349v-2.182h-0.896v7.216h0.951v-0.383c0.126,0.156,0.262,0.267,0.403,0.337
		c0.144,0.075,0.309,0.114,0.496,0.114c0.277,0,0.491-0.1,0.642-0.286c0.145-0.188,0.219-0.457,0.219-0.812V426.867z
		 M150.101,427.546c0-0.45-0.111-1.216-0.342-1.462c-0.221-0.239-0.544-0.358-0.966-0.358c-0.409,0-0.739,0.127-1.002,0.393
		c-0.259,0.256-0.391,1.017-0.391,1.428v2.148c0,0.46,0.12,0.822,0.355,1.079c0.237,0.266,0.559,0.396,0.972,0.396
		c0.454,0,0.797-0.126,1.029-0.37c0.232-0.247,0.343-0.615,0.343-1.105v-0.248h-0.942v0.216c0,0.287-0.034,0.464-0.094,0.547
		s-0.164,0.125-0.313,0.125c-0.151,0-0.251-0.05-0.313-0.146c-0.061-0.099-0.093-0.271-0.093-0.525v-1.209h1.756V427.546z
		 M148.755,426.56c0.14,0,0.246,0.044,0.306,0.131c0.063,0.084,0.097,0.647,0.097,0.851v0.168h-0.813v-0.168
		c0-0.203,0.034-0.767,0.097-0.851C148.504,426.604,148.61,426.56,148.755,426.56z M145.204,430.397
		c-0.081,0-0.155-0.019-0.227-0.057c-0.076-0.035-0.208-0.097-0.283-0.176v-3.556c0.067-0.066,0.188-0.119,0.251-0.149
		c0.067-0.033,0.132-0.048,0.201-0.048c0.125,0,0.223,0.039,0.296,0.126c0.063,0.089,0.18,0.216,0.18,0.383l0,0v3.026
		c0,0.16-0.111,0.274-0.163,0.342C145.404,430.361,145.318,430.397,145.204,430.397z M147.39,419.188
		c-0.238,0.437-0.462,0.728-0.734,0.937c-0.354,0.273-0.743,0.25-0.866,0.125c-0.182-0.186-0.211-0.685-0.211-1.028V414.8h0.904
		v4.03c0,0.136,0.024,0.231,0.071,0.292c0.049,0.061,0.069,0.09,0.174,0.09c0.084,0,0.556-0.645,0.662-0.77V414.8h0.903v5.358
		h-0.903V419.188z M144.691,418.74c0,0.488-0.145,0.871-0.435,1.147c-0.296,0.273-0.361,0.412-0.873,0.412
		c-0.492,0-0.635-0.142-0.931-0.425c-0.295-0.289-0.445-0.674-0.445-1.159v-2.388c0-0.439,0.135-0.814,0.439-1.078
		c0.305-0.259,0.447-0.455,0.961-0.455c0.468,0,0.61,0.167,0.896,0.455c0.247,0.25,0.388,0.678,0.388,1.113l0,0V418.74z
		 M143.799,416.287c0-0.126-0.048-0.226-0.139-0.302c-0.094-0.078-0.157-0.116-0.307-0.116c-0.139,0-0.25,0.038-0.336,0.116
		c-0.085,0.076-0.129,0.176-0.129,0.302v2.535c0,0.158,0.04,0.279,0.122,0.363c0.077,0.085,0.193,0.128,0.343,0.128
		c0.154,0,0.216-0.043,0.31-0.128c0.089-0.09,0.136-0.208,0.136-0.363V416.287z M140.214,420.271h-0.934v-2.153L137.654,413h1.282
		l0.824,3.086h0.078l0.786-3.086h1.293l-1.704,4.976V420.271z"/>
</g>
<g>
	<path fill-rule="evenodd" clip-rule="evenodd" fill="#502E61" d="M190.635,443c-10.94,0-19.809-8.954-19.809-20s8.868-20,19.809-20
		s19.809,8.954,19.809,20S201.575,443,190.635,443z M190.635,406.125c-9.23,0-16.713,7.555-16.713,16.875
		s7.482,16.875,16.713,16.875c9.231,0,16.714-7.555,16.714-16.875S199.866,406.125,190.635,406.125z M196.832,424.241
		c-0.053-0.294-0.901-2.396-2.476-2.5c-2.931-0.391-3.714,2.18-3.714,2.5v8.75h-3.715v-15h3.715v2.5
		c0.208-0.105,1.772-2.446,4.952-2.5c4.064,0.054,4.807,3.134,4.938,4.633v10.385l-3.7-0.018V424.241z M180.738,417.991h3.714v15
		h-3.714V417.991z M182.596,416.741c-1.025,0-1.857-0.838-1.857-1.875c0-1.036,0.832-1.875,1.857-1.875
		c1.024,0,1.856,0.839,1.856,1.875C184.452,415.903,183.62,416.741,182.596,416.741z"/>
</g>
<rect id="_x3C_Slice_x3E__1_" x="163" y="28" fill-rule="evenodd" clip-rule="evenodd" fill="none" width="81" height="105"/>
<rect id="_x3C_Slice_x3E__2_" x="265" y="28" fill-rule="evenodd" clip-rule="evenodd" fill="none" width="110" height="80"/>
<rect id="_x3C_Slice_x3E__3_" x="406" y="32" fill-rule="evenodd" clip-rule="evenodd" fill="none" width="108" height="108"/>
<rect id="_x3C_Slice_x3E__4_" x="406" y="308" fill-rule="evenodd" clip-rule="evenodd" fill="none" width="10" height="10"/>
<rect id="_x3C_Slice_x3E__5_" x="434" y="302" fill-rule="evenodd" clip-rule="evenodd" fill="none" width="20" height="20"/>
<rect id="_x3C_Slice_x3E__6_" x="455" y="302" fill-rule="evenodd" clip-rule="evenodd" fill="none" width="20" height="20"/>
<rect id="_x3C_Slice_x3E__7_" x="476" y="302" fill-rule="evenodd" clip-rule="evenodd" fill="none" width="20" height="20"/>
<rect id="_x3C_Slice_x3E__8_" x="498" y="302" fill-rule="evenodd" clip-rule="evenodd" fill="none" width="20" height="20"/>
<rect id="_x3C_Slice_x3E__9_" x="29" y="157" fill-rule="evenodd" clip-rule="evenodd" fill="none" width="16" height="16"/>
<rect id="_x3C_Slice_x3E__10_" x="47" y="157" fill-rule="evenodd" clip-rule="evenodd" fill="none" width="16" height="16"/>
<rect id="_x3C_Slice_x3E__11_" x="19" y="193" fill-rule="evenodd" clip-rule="evenodd" fill="none" width="78" height="72"/>
<rect id="_x3C_Slice_x3E__12_" x="375" y="332" fill-rule="evenodd" clip-rule="evenodd" fill="none" width="24" height="19"/>
<rect id="_x3C_Slice_x3E__13_" x="382" y="308" fill-rule="evenodd" clip-rule="evenodd" fill="none" width="12" height="12"/>
<rect id="_x3C_Slice_x3E__14_" x="118" y="188" fill-rule="evenodd" clip-rule="evenodd" fill="none" width="66" height="85"/>
<rect id="_x3C_Slice_x3E__15_" x="213" y="192" fill="none" width="78" height="82"/>
<rect id="_x3C_Slice_x3E__16_" x="320" y="188" fill="none" width="80" height="80"/>
<rect id="_x3C_Slice_x3E__17_" x="414" y="185" fill="none" width="50" height="82"/>
<rect id="_x3C_Slice_x3E__18_" x="10" y="314" fill="none" width="95" height="68"/>
<rect id="_x3C_Slice_x3E__19_" x="124" y="317" fill="none" width="85" height="62"/>
<rect id="_x3C_Slice_x3E__20_" x="239" y="308" fill-rule="evenodd" clip-rule="evenodd" fill="none" width="82" height="85"/>
<g>
	<path fill-rule="evenodd" clip-rule="evenodd" fill="#3D3A3F" d="M259,432.802l-3.227-3.228c1.429-1.705,2.21-3.833,2.21-6.083
		c0.001-2.534-0.986-4.919-2.78-6.71c-1.792-1.794-4.176-2.781-6.712-2.781c-2.535,0-4.919,0.988-6.71,2.781
		c-1.793,1.791-2.781,4.174-2.781,6.71c0,2.535,0.988,4.919,2.781,6.711c1.792,1.793,4.176,2.78,6.71,2.78
		c2.251,0,4.38-0.782,6.083-2.21l3.227,3.228L259,432.802z M242.979,429.003c-1.473-1.472-2.285-3.429-2.285-5.512
		c0-2.082,0.812-4.039,2.285-5.513c1.472-1.472,3.429-2.283,5.512-2.283s4.041,0.812,5.515,2.283
		c1.472,1.474,2.282,3.431,2.282,5.513c0,2.083-0.811,4.04-2.283,5.513c-1.473,1.472-3.431,2.285-5.514,2.285
		S244.451,430.476,242.979,429.003z"/>
</g>
<rect id="_x3C_Slice_x3E_" x="239" y="414" fill-rule="evenodd" clip-rule="evenodd" fill="none" width="20" height="20"/>
<rect id="_x3C_Slice_x3E__21_" x="25" y="403" fill="none" width="40" height="40"/>
<rect id="_x3C_Slice_x3E__22_" x="73" y="403" fill-rule="evenodd" clip-rule="evenodd" fill="none" width="40" height="40"/>
<rect id="_x3C_Slice_x3E__23_" x="124" y="403" fill-rule="evenodd" clip-rule="evenodd" fill="none" width="40" height="40"/>
<rect id="_x3C_Slice_x3E__24_" x="171" y="403" fill-rule="evenodd" clip-rule="evenodd" fill="none" width="40" height="40"/>
<g>
	<path fill-rule="evenodd" clip-rule="evenodd" fill="#76AAD7" d="M45,514c-14.336,0-26-11.664-26-26c0-14.338,11.664-26,26-26
		s26,11.662,26,26C71,502.336,59.336,514,45,514z M45,463.732c-13.381,0-24.267,10.887-24.267,24.268
		c0,13.38,10.886,24.266,24.267,24.266S69.267,501.38,69.267,488C69.267,474.619,58.381,463.732,45,463.732z M39.422,501.715
		c-0.147,0.1-0.318,0.151-0.488,0.151c-0.139,0-0.279-0.033-0.405-0.101c-0.284-0.15-0.462-0.444-0.462-0.766v-26
		c0-0.322,0.178-0.616,0.461-0.767c0.285-0.15,0.628-0.13,0.895,0.05l19.066,13c0.236,0.162,0.379,0.43,0.379,0.717
		s-0.143,0.555-0.379,0.715L39.422,501.715z M39.8,476.641v22.719L56.461,488L39.8,476.641z"/>
</g>
<rect id="_x3C_Slice_x3E__25_" x="19" y="462" fill-rule="evenodd" clip-rule="evenodd" fill="none" width="52" height="52"/>
<g>
	<path fill-rule="evenodd" clip-rule="evenodd" fill="#FFFFFF" d="M367,313.648c0-0.424,0.35-0.648,0.786-0.648h6.519l-2.766-2.822
		c-0.306-0.299-0.306-0.845,0-1.148l0.742-0.757c0.305-0.298,0.803-0.312,1.115-0.014l5.372,5.24
		c0.153,0.149,0.231,0.343,0.231,0.54c0,0.196-0.078,0.392-0.231,0.541l-5.372,5.248c-0.307,0.299-0.805,0.299-1.115,0l-0.742-0.727
		c-0.306-0.298-0.306-0.444,0-0.749l2.766-2.353h-6.515c-0.434,0-0.786-0.625-0.786-1.049L367,313.648z"/>
</g>
<rect id="_x3C_Slice_x3E__26_" x="367" y="308" fill-rule="evenodd" clip-rule="evenodd" fill="none" width="12" height="12"/>
<g>
	<path fill-rule="evenodd" clip-rule="evenodd" fill="#FFFFFF" d="M398.809,341.896c-0.184-0.392-0.465-0.692-0.842-0.9
		c-0.377-0.209-0.792-0.313-1.244-0.313h-2.414v-2.046c0-0.784-0.276-1.458-0.829-2.021c-0.554-0.563-1.216-0.844-1.985-0.844
		h-6.838v-0.409c0-0.784-0.277-1.458-0.83-2.021s-1.215-0.844-1.986-0.844h-4.021c-0.771,0-1.434,0.281-1.986,0.844
		s-0.83,1.236-0.83,2.021v12.275c0,0.784,0.277,1.458,0.83,2.021s1.215,0.845,1.986,0.845h13.676c0.561,0,1.147-0.148,1.76-0.442
		c0.611-0.294,1.098-0.667,1.457-1.118l3.709-4.643c0.385-0.494,0.578-1.005,0.578-1.534
		C398.998,342.459,398.936,342.169,398.809,341.896z M376.611,335.362c0-0.341,0.117-0.631,0.352-0.869s0.52-0.358,0.855-0.358
		h4.021c0.336,0,0.621,0.119,0.855,0.358c0.234,0.238,0.352,0.528,0.352,0.869v0.818c0,0.342,0.117,0.631,0.352,0.869
		c0.234,0.239,0.52,0.358,0.855,0.358h7.24c0.334,0,0.619,0.119,0.854,0.358c0.234,0.238,0.352,0.528,0.352,0.869v2.046h-9.653
		c-0.57,0-1.156,0.147-1.76,0.441s-1.09,0.667-1.458,1.119l-3.218,4.027V335.362z M397.162,343.265l-3.695,4.642
		c-0.209,0.265-0.507,0.49-0.893,0.678c-0.385,0.188-0.746,0.281-1.08,0.281h-13.676c-0.444,0-0.666-0.149-0.666-0.448
		c0-0.136,0.074-0.307,0.226-0.512l3.695-4.641c0.218-0.265,0.518-0.488,0.899-0.672c0.381-0.183,0.738-0.274,1.074-0.274h13.676
		c0.443,0,0.666,0.149,0.666,0.447C397.389,342.911,397.313,343.077,397.162,343.265z"/>
</g>
<g>
	<path fill-rule="evenodd" clip-rule="evenodd" fill="#502E61" d="M44.809,443C33.868,443,25,434.047,25,423
		c0-11.045,8.868-20,19.809-20c10.939,0,19.808,8.955,19.808,20C64.616,434.047,55.748,443,44.809,443z M44.809,406.125
		c-9.231,0-16.714,7.555-16.714,16.875s7.482,16.875,16.714,16.875c9.23,0,16.713-7.555,16.713-16.875
		S54.039,406.125,44.809,406.125z M49.509,419.939l-0.532,3.529h-2.914c0,4.482,0,9.531,0,9.531h-3.43c0,0,0-4.998,0-9.531h-2.525
		v-3.529h2.525v-2.746c0-1.639,0.795-4.193,4.275-4.193l2.551,0.014v3.426c0,0-1.855,0-2.226,0c-0.372,0-1.171,0.182-1.171,0.961
		v2.539H49.509z"/>
</g>
<g>
	<path fill-rule="evenodd" clip-rule="evenodd" fill="#76AAD7" d="M157,507c-10.941,0-19.809-8.954-19.809-20s8.867-20,19.809-20
		c10.939,0,19.808,8.954,19.808,20S167.94,507,157,507z M157,470.125c-9.231,0-16.714,7.555-16.714,16.875
		s7.482,16.875,16.714,16.875c9.23,0,16.713-7.555,16.713-16.875S166.231,470.125,157,470.125z M164.922,482.626
		c0,0.023,0.003,0.046,0.003,0.067c0,0.018-0.003,0.037-0.003,0.057c0,0.007,0.003,0.016,0.003,0.024
		c0.275,7.166-4.845,12.976-11.438,12.976c-2.32,0-4.512-0.72-6.392-1.966c2.768,0.478,5.004-1.02,5.659-1.843
		c-1.839,0-3.522-1.709-3.652-3.018c0.371,0.063,1.22,0.143,1.701-0.139c-2.496-0.744-3.182-2.795-3.152-4.342
		c0.417,0.441,1.305,0.541,1.784,0.501c-1.406-0.945-2.477-3.538-1.239-5.87c2.017,2.855,5.596,4.523,8.657,4.609h0.001
		c-0.068-0.318-0.105-0.649-0.105-0.99c0-2.454,1.831-4.443,4.087-4.443c1.163,0,2.21,0.527,2.955,1.374
		c-0.002-0.001-0.002-0.003-0.002-0.003c0.653,0,1.975-0.582,2.55-0.981c-0.219,0.913-1.104,2.063-1.703,2.413
		c0.934-0.101,1.935-0.499,2.268-0.699C166.328,481.394,165.522,482.182,164.922,482.626z"/>
</g>
<g>
	<path fill-rule="evenodd" clip-rule="evenodd" fill="#76AAD7" d="M207.809,507c-10.94,0-19.809-8.954-19.809-20s8.868-20,19.809-20
		s19.809,8.954,19.809,20S218.749,507,207.809,507z M207.809,470.125c-9.231,0-16.714,7.555-16.714,16.875
		s7.482,16.875,16.714,16.875c9.23,0,16.713-7.555,16.713-16.875S217.039,470.125,207.809,470.125z M214.096,497h-12.573
		c-1.998,0-3.618-1.675-3.618-3.734v-3.461c0-2.063,1.62-3.734,3.618-3.734h12.573c1.999,0,3.617,1.672,3.617,3.734v3.461
		C217.713,495.325,216.095,497,214.096,497z M204.219,487.898h-2.706v0.908h0.886v6.361h0.906v-6.361h0.914V487.898z
		 M206.904,489.738h-0.889v4.192c-0.089,0.103-0.242,0.193-0.349,0.261c-0.105,0.071-0.251,0.105-0.318,0.105
		c-0.089,0-0.152-0.027-0.193-0.078c-0.039-0.054-0.06-0.137-0.06-0.252v-4.229h-0.913v4.565c0,0.295,0.082,0.514,0.193,0.662
		c0.11,0.149,0.274,0.222,0.492,0.222c0.179,0,0.361-0.048,0.548-0.158c0.189-0.104,0.37-0.317,0.544-0.513l0,0v0.656h0.944V489.738
		z M210.51,490.867c0-0.407-0.079-0.719-0.235-0.932c-0.154-0.212-0.387-0.323-0.683-0.323c-0.148,0-0.293,0.04-0.438,0.119
		c-0.136,0.08-0.329,0.197-0.459,0.349v-2.182h-0.896v7.216h0.951v-0.383c0.126,0.156,0.262,0.267,0.403,0.337
		c0.144,0.075,0.309,0.114,0.496,0.114c0.277,0,0.491-0.1,0.642-0.286c0.145-0.188,0.219-0.457,0.219-0.812V490.867z
		 M214.101,491.546c0-0.45-0.111-1.216-0.342-1.462c-0.221-0.239-0.544-0.358-0.966-0.358c-0.409,0-0.739,0.127-1.002,0.393
		c-0.259,0.256-0.391,1.017-0.391,1.428v2.148c0,0.46,0.12,0.822,0.355,1.079c0.237,0.266,0.559,0.396,0.972,0.396
		c0.454,0,0.797-0.126,1.029-0.37c0.232-0.247,0.343-0.615,0.343-1.105v-0.248h-0.942v0.216c0,0.287-0.034,0.464-0.094,0.547
		s-0.164,0.125-0.313,0.125c-0.151,0-0.251-0.05-0.313-0.146c-0.061-0.099-0.093-0.271-0.093-0.525v-1.209h1.756V491.546z
		 M212.755,490.56c0.14,0,0.246,0.044,0.306,0.131c0.063,0.084,0.097,0.647,0.097,0.851v0.168h-0.813v-0.168
		c0-0.203,0.034-0.767,0.097-0.851C212.504,490.604,212.61,490.56,212.755,490.56z M209.204,494.397
		c-0.081,0-0.155-0.019-0.227-0.057c-0.076-0.035-0.208-0.097-0.283-0.176v-3.556c0.067-0.066,0.188-0.119,0.251-0.149
		c0.067-0.033,0.132-0.048,0.201-0.048c0.125,0,0.223,0.039,0.296,0.126c0.063,0.089,0.18,0.216,0.18,0.383l0,0v3.026
		c0,0.16-0.111,0.274-0.163,0.342C209.404,494.361,209.318,494.397,209.204,494.397z M211.39,483.188
		c-0.238,0.437-0.462,0.728-0.734,0.937c-0.354,0.273-0.743,0.25-0.866,0.125c-0.182-0.186-0.211-0.685-0.211-1.028V478.8h0.904
		v4.03c0,0.136,0.024,0.231,0.071,0.292c0.049,0.061,0.069,0.09,0.174,0.09c0.084,0,0.556-0.645,0.662-0.77V478.8h0.903v5.358
		h-0.903V483.188z M208.691,482.74c0,0.488-0.145,0.871-0.435,1.147c-0.296,0.273-0.361,0.412-0.873,0.412
		c-0.492,0-0.635-0.142-0.931-0.425c-0.295-0.289-0.445-0.674-0.445-1.159v-2.388c0-0.439,0.135-0.814,0.439-1.078
		c0.305-0.259,0.447-0.455,0.961-0.455c0.468,0,0.61,0.167,0.896,0.455c0.247,0.25,0.388,0.678,0.388,1.113l0,0V482.74z
		 M207.799,480.287c0-0.126-0.048-0.226-0.139-0.302c-0.094-0.078-0.157-0.116-0.307-0.116c-0.139,0-0.25,0.038-0.336,0.116
		c-0.085,0.076-0.129,0.176-0.129,0.302v2.535c0,0.158,0.04,0.279,0.122,0.363c0.077,0.085,0.193,0.128,0.343,0.128
		c0.154,0,0.216-0.043,0.31-0.128c0.089-0.09,0.136-0.208,0.136-0.363V480.287z M204.214,484.271h-0.934v-2.153L201.654,477h1.282
		l0.824,3.086h0.078l0.786-3.086h1.293l-1.704,4.976V484.271z"/>
</g>
<g>
	<path fill-rule="evenodd" clip-rule="evenodd" fill="#76AAD7" d="M254.635,507c-10.94,0-19.809-8.954-19.809-20s8.868-20,19.809-20
		s19.809,8.954,19.809,20S265.575,507,254.635,507z M254.635,470.125c-9.23,0-16.713,7.555-16.713,16.875
		s7.482,16.875,16.713,16.875c9.231,0,16.714-7.555,16.714-16.875S263.866,470.125,254.635,470.125z M260.832,488.241
		c-0.053-0.294-0.901-2.396-2.476-2.5c-2.931-0.391-3.714,2.18-3.714,2.5v8.75h-3.715v-15h3.715v2.5
		c0.208-0.105,1.772-2.446,4.952-2.5c4.064,0.054,4.807,3.134,4.938,4.633v10.385l-3.7-0.018V488.241z M244.738,481.991h3.714v15
		h-3.714V481.991z M246.596,480.741c-1.025,0-1.857-0.838-1.857-1.875c0-1.036,0.832-1.875,1.857-1.875
		c1.024,0,1.856,0.839,1.856,1.875C248.452,479.903,247.62,480.741,246.596,480.741z"/>
</g>
<g>
	<path fill-rule="evenodd" clip-rule="evenodd" fill="#76AAD7" d="M108.809,507C97.868,507,89,498.047,89,487
		c0-11.045,8.868-20,19.809-20c10.939,0,19.808,8.955,19.808,20C128.616,498.047,119.748,507,108.809,507z M108.809,470.125
		c-9.231,0-16.714,7.555-16.714,16.875s7.482,16.875,16.714,16.875c9.23,0,16.713-7.555,16.713-16.875
		S118.039,470.125,108.809,470.125z M113.509,483.939l-0.532,3.529h-2.914c0,4.482,0,9.531,0,9.531h-3.43c0,0,0-4.998,0-9.531
		h-2.525v-3.529h2.525v-2.746c0-1.639,0.795-4.193,4.275-4.193l2.551,0.014v3.426c0,0-1.855,0-2.226,0
		c-0.372,0-1.171,0.182-1.171,0.961v2.539H113.509z"/>
</g>
<rect id="_x3C_Slice_x3E__27_" x="89" y="467" fill="none" width="40" height="40"/>
<rect id="_x3C_Slice_x3E__28_" x="137" y="467" fill="none" width="40" height="40"/>
<rect id="_x3C_Slice_x3E__29_" x="187" y="467" fill="none" width="40" height="40"/>
<rect id="_x3C_Slice_x3E__30_" x="235" y="466" fill="none" width="40" height="40"/>
<g>
	<path fill-rule="evenodd" clip-rule="evenodd" fill="#3D3A3F" d="M315,441.604l-6.453-6.455c2.858-3.41,4.42-7.666,4.42-12.166
		c0.003-5.068-1.972-9.838-5.56-13.42c-3.585-3.588-8.353-5.563-13.424-5.563c-5.069,0-9.838,1.977-13.421,5.563
		c-3.586,3.582-5.563,8.348-5.563,13.42c0,5.07,1.977,9.838,5.563,13.422c3.583,3.586,8.352,5.561,13.421,5.561
		c4.503,0,8.76-1.564,12.167-4.42l6.453,6.455L315,441.604z M282.959,434.006c-2.946-2.943-4.569-6.857-4.569-11.023
		c0-4.164,1.623-8.078,4.569-11.025c2.943-2.943,6.858-4.566,11.024-4.566s8.081,1.623,11.029,4.566
		c2.943,2.947,4.564,6.861,4.564,11.025c0,4.166-1.621,8.08-4.566,11.025c-2.946,2.943-6.861,4.57-11.027,4.57
		S285.902,436.951,282.959,434.006z"/>
</g>
<rect id="_x3C_Slice_x3E__31_" x="275" y="403" fill-rule="evenodd" clip-rule="evenodd" fill="none" width="40" height="40"/>
<rect id="_x3C_Slice_x3E__32_" x="-13" y="-51" fill-rule="evenodd" clip-rule="evenodd" fill="none" width="726" height="796"/>
</svg>
