<?xml version="1.0" encoding="utf-8"?>
<!-- Generator: Adobe Illustrator 16.0.0, SVG Export Plug-In . SVG Version: 6.00 Build 0)  -->
<!DOCTYPE svg PUBLIC "-//W3C//DTD SVG 1.1//EN" "http://www.w3.org/Graphics/SVG/1.1/DTD/svg11.dtd">
<svg version="1.1" id="Layer_1" xmlns="http://www.w3.org/2000/svg" xmlns:xlink="http://www.w3.org/1999/xlink" x="0px" y="0px"
	 width="600px" height="600px" viewBox="0 0 600 600" enable-background="new 0 0 600 600" xml:space="preserve">
<rect display="none" fill-rule="evenodd" clip-rule="evenodd" fill="#ED1F24" width="600" height="600"/>
<rect x="497.91" y="302" display="none" fill-rule="evenodd" clip-rule="evenodd" fill="#8F4A4B" width="20" height="20"/>
<rect x="476" y="302" display="none" fill-rule="evenodd" clip-rule="evenodd" fill="#8F4A4B" width="20" height="20"/>
<rect x="455.041" y="302" display="none" fill-rule="evenodd" clip-rule="evenodd" fill="#8F4A4B" width="20" height="20"/>
<rect x="434" y="302" display="none" fill-rule="evenodd" clip-rule="evenodd" fill="#8F4A4B" width="20" height="20"/>
<g>
	<path fill-rule="evenodd" clip-rule="evenodd" fill="#FFFFFF" d="M118.413,124.13v11.36h5.79c1.043,0,1.89,0.459,1.89,1.5
		s-0.847,1.5-1.89,1.5H30.89c-1.043,0-1.89-0.729-1.89-1.769c0-5.152,4.208-9.23,9.382-9.23h46.037v-3.999H71.715
		c-1.044,0-1.891-0.96-1.891-1.999c0-1.041,0.847-2,1.891-2h12.704V94.497H58.567c-1.044,0-1.89-0.959-1.89-2
		c0-1.039,0.846-2,1.89-2h45.849V73.451c0-4.002-3.309-7.258-7.328-7.258c-1.043,0-1.909-0.843-1.909-1.883
		c0-1.04,0.985-1.882,2.028-1.882c6.104,0,11.208,4.945,11.208,11.023V95.33c0,1.04-0.956,1.882-2,1.882s-2-0.842-2-1.882v-0.833
		H88.418v32.994h20.52c1.044,0,1.891,0.961,1.891,2c0,1.041-0.847,2-1.891,2H38.382c-2.426,0-4.497,2-5.273,4h81.305v-11.36
		c-5.999-0.909-10.586-6.071-10.586-12.282s4.587-11.373,10.586-12.283V73.451c0-9.643-7.681-17.947-17.363-17.947h-5.633v13.998
		h0.703c1.043,0,1.891,0.96,1.891,2c0,1.04-0.848,2-1.891,2h-3.702v6.767c0,1.041-0.595,2.232-1.639,2.232H71.716
		c-1.044,0-2.294-1.191-2.294-2.232v-6.767h-3.046c-1.044,0-1.891-0.96-1.891-2c0-1.04,0.847-2,1.891-2h1.046V30.417
		c0-1.039,0.43-1.908,1.474-1.908H89.6c1.044,0,1.818,0.869,1.818,1.908v22.088h5.632c11.767,0,21.363,9.228,21.363,20.946v26.115
		c5.999,0.91,10.587,6.072,10.587,12.283S124.412,123.221,118.413,124.13z M73.421,78.5h10.998v-4.999H73.421V78.5z M87.418,32.508
		H70.421v36.993h16.997V32.508z M116.501,103.496c-0.001,0-0.002,0-0.002,0l-0.001-0.153c-4.795,0-8.694,3.808-8.694,8.583
		c0,4.775,3.901,8.622,8.695,8.622c4.796,0,8.696-3.75,8.696-8.525C125.195,107.247,121.295,103.496,116.501,103.496z M89.6,24.51
		H68.896c-1.044,0-1.891-0.96-1.891-2c0-1.04,0.847-2,1.891-2H89.6c1.044,0,1.891,0.96,1.891,2C91.49,23.55,90.644,24.51,89.6,24.51
		z"/>
</g>
<g>
	<path fill-rule="evenodd" clip-rule="evenodd" fill="#FFFFFF" d="M242.955,49.83c-0.315,0.337-0.765,0.494-1.192,0.494
		s-0.855-0.18-1.193-0.494l-2.521-2.472l-10.826,10.628l8.305,8.157c0.676,0.651,0.676,1.708,0.023,2.381
		c-0.315,0.337-0.766,0.494-1.193,0.494s-0.855-0.179-1.193-0.494l-4.366-4.292L196,96.491c-0.315,0.314-0.743,0.509-1.193,0.509
		c-0.045,0-0.067,0-0.113,0l-17.445-1.094l-9.994,9.812c-0.337,0.337-0.765,0.491-1.193,0.491s-0.855-0.159-1.193-0.496
		c-0.653-0.652-0.653-1.731,0.022-2.383l9.972-9.797l-1.081-17.122c-0.045-0.494,0.158-0.966,0.495-1.303l32.774-32.221
		l-4.321-4.247c-0.676-0.652-0.676-1.708-0.023-2.382c0.653-0.674,1.711-0.674,2.387-0.022l8.351,8.201l10.805-10.628l-2.476-2.427
		c-0.676-0.652-0.676-1.708-0.023-2.382c0.653-0.674,1.733-0.674,2.387-0.022l18.772,18.447
		C243.563,48.077,243.584,49.133,242.955,49.83z M209.438,45.246l-7.113,7.01l11.008,10.808l-2.363,2.404l-11.053-10.853
		l-5.132,5.033l5.177,5.1l-2.363,2.405l-5.222-5.124l-5.267,5.19l10.872,10.673l-2.364,2.404L184.723,69.58l-7.519,7.393
		l0.99,15.639l15.959,0.989l32.211-31.705L209.438,45.246z M226.635,36.168l-10.805,10.628l8.959,8.831l10.805-10.65L226.635,36.168
		z M183.665,113.688l5.402-5.303c0.653-0.651,1.71-0.651,2.363,0l16.207,15.931c0.338,0.315,0.518,0.742,0.518,1.191
		c0,0.45-0.18,0.876-0.495,1.191L202.258,132c-0.338,0.337-0.766,0.494-1.193,0.494s-0.855-0.18-1.193-0.494l-16.207-15.931
		c-0.315-0.314-0.495-0.742-0.495-1.191S183.35,114.002,183.665,113.688z M201.065,128.472l2.994-2.943l-5.695-5.595l-2.994,2.943
		L201.065,128.472z M192.961,120.496l2.994-2.944l-5.695-5.595l-2.994,2.943L192.961,120.496z M207.052,105.688
		c0-0.449,0.18-0.898,0.495-1.213l15.914-15.931c0.652-0.652,1.733-0.652,2.387,0l5.401,5.303c0.315,0.314,0.495,0.742,0.495,1.168
		c0,0.45-0.18,0.876-0.495,1.191l-15.914,15.661c-0.337,0.337-0.765,0.495-1.192,0.495c-0.406,0-0.833-0.158-1.148-0.45
		l-5.402-5.033C207.254,106.587,207.052,106.138,207.052,105.688z M227.67,95.038l-2.993-2.943l-5.515,5.505l2.926,2.898
		L227.67,95.038z M214.098,108.363l5.582-5.483l-2.927-2.876l-5.604,5.617L214.098,108.363z"/>
</g>
<g>
	<path fill-rule="evenodd" clip-rule="evenodd" fill="#FFFFFF" d="M372.919,53.383c-0.384,0.383-0.887,0.576-1.391,0.576
		c-0.503,0-1.007-0.193-1.391-0.576C356.634,39.869,338.65,32.428,319.5,32.428s-37.135,7.441-50.639,20.956
		c-0.769,0.77-2.012,0.77-2.781,0c-0.769-0.769-0.769-2.013,0-2.782c14.248-14.259,33.219-22.108,53.42-22.108
		c20.2,0,39.174,7.851,53.419,22.108C373.688,51.369,373.688,52.615,372.919,53.383z M361.356,62.168
		c0.769,0.77,0.769,2.014,0,2.783s-2.012,0.77-2.781,0c-21.548-21.563-56.607-21.563-78.153,0c-0.384,0.383-0.887,0.576-1.391,0.576
		c-0.503,0-1.007-0.193-1.391-0.576c-0.769-0.77-0.769-2.014,0-2.783C300.723,39.07,338.278,39.074,361.356,62.168z M319.5,61.199
		c11.456,0,22.217,4.454,30.296,12.539c0.769,0.77,0.769,2.014,0,2.783c-0.384,0.383-0.888,0.576-1.391,0.576
		c-0.504,0-1.007-0.193-1.391-0.576c-7.338-7.342-17.108-11.386-27.515-11.386s-20.178,4.044-27.516,11.386
		c-0.769,0.77-2.012,0.77-2.781,0c-0.769-0.77-0.769-2.014,0-2.783C297.285,65.653,308.043,61.199,319.5,61.199z M319.5,79.715
		c7.105,0,12.886,5.785,12.886,12.896c0,7.109-5.78,12.895-12.886,12.895c-7.104,0-12.885-5.785-12.885-12.895
		C306.615,85.5,312.396,79.715,319.5,79.715z M319.5,101.567c4.937,0,8.952-4.019,8.952-8.959s-4.018-8.958-8.952-8.958
		s-8.951,4.018-8.951,8.958S314.563,101.567,319.5,101.567z"/>
</g>
<g>
	<path fill-rule="evenodd" clip-rule="evenodd" fill="#FFFFFF" d="M514,101.906c0-15.146-13.269-27.865-30.99-30.886
		c0.75-2.491,1.125-4.96,1.125-7.451c0-17.372-17.479-31.569-39.078-31.569C423.456,32,406,46.197,406,63.569
		c0,7.892,3.438,15.101,9.875,20.965l-7.12,17.129l21.601-8.796c2.094,0.639,4.298,1.146,6.611,1.565
		c-0.727,2.403-1.102,4.894-1.102,7.452c0,17.371,17.457,31.569,39.057,31.569c5.047,0,9.874-0.684,14.701-2.249l21.6,8.796
		l-7.119-17.129C510.562,117.029,514,109.577,514,101.906z M430.355,88.149l-13.093,5.181l4.144-9.92c0,0-10.8-7.297-10.8-19.621
		c0-14.88,15.407-27.071,34.472-27.071c19.065,0,34.473,12.169,34.936,26.829c0,2.447-0.441,4.695-1.125,6.922
		c-1.301-0.11-2.601-0.154-3.923-0.154c-16.442,0-30.46,8.223-36.235,19.796C436.086,89.891,430.355,88.149,430.355,88.149z
		 M489.623,126.508c-4.387,1.764-9.633,2.69-14.459,2.69c-19.065,0-34.472-12.169-34.472-27.072
		c0-14.88,15.406-27.072,34.472-27.072c19.064,0,34.472,12.169,34.472,27.072c0,12.279-10.8,19.62-10.8,19.62l4.144,9.92
		L489.623,126.508z"/>
</g>
<g>
	<path fill-rule="evenodd" clip-rule="evenodd" fill="none" d="M314.5,150.809c0-0.564,0.466-1.023,1.049-1.023h8.69l-3.688-3.601
		c-0.407-0.397-0.407-1.046,0-1.451l0.99-0.967c0.407-0.397,1.071-0.397,1.486,0l7.164,6.995c0.203,0.199,0.308,0.459,0.308,0.723
		c0,0.261-0.104,0.524-0.308,0.723l-7.164,6.994c-0.407,0.397-1.071,0.397-1.486,0l-0.99-0.966c-0.407-0.397-0.407-1.046,0-1.451
		l3.688-3.588h-8.686c-0.578,0-1.049-0.459-1.049-1.023L314.5,150.809z"/>
</g>
<g>
	<path fill-rule="evenodd" clip-rule="evenodd" fill="#FFFFFF" d="M47,164.169c0-0.563,0.466-1.169,1.049-1.169h8.69l-3.688-3.455
		c-0.407-0.397-0.407-0.973,0-1.378l0.99-0.93c0.407-0.397,1.071-0.379,1.486,0.019l7.164,7.004
		c0.203,0.198,0.308,0.463,0.308,0.727c0,0.261-0.104,0.526-0.308,0.726l-7.164,6.995c-0.407,0.397-1.071,0.398-1.486,0.001
		l-0.99-0.967c-0.407-0.397-0.407-1.397,0-1.802L56.739,166h-8.686c-0.578,0-1.049-0.181-1.049-0.745L47,164.169z"/>
</g>
<g>
	<path fill-rule="evenodd" clip-rule="evenodd" fill="#FFFFFF" d="M45,164.188c0-0.563-0.466-1.188-1.049-1.188h-8.69l3.688-3.428
		c0.407-0.396,0.407-0.961,0-1.366l-0.99-0.923c-0.407-0.396-1.071-0.376-1.486,0.02l-7.164,6.992
		c-0.203,0.199-0.308,0.464-0.308,0.727c0,0.26,0.104,0.525,0.308,0.724l7.164,6.983c0.407,0.396,1.071,0.397,1.486,0l0.99-0.965
		c0.407-0.397,0.407-1.412,0-1.816L35.261,166h8.686c0.577,0,1.049-0.174,1.049-0.736L45,164.188z"/>
</g>
<g>
	<path fill="#1B427A" d="M96.663,260.52l-36.297-65.629c-0.475-0.858-1.381-1.391-2.365-1.391s-1.891,0.533-2.365,1.391
		L19.339,260.52c-0.46,0.832-0.444,1.844,0.042,2.661c0.485,0.817,1.369,1.319,2.324,1.319h72.593c0.954,0,1.838-0.502,2.323-1.319
		S97.122,261.352,96.663,260.52z M26.271,259.129L58,201.757l31.729,57.372H26.271z"/>
	<path fill="#1B427A" d="M54.618,220.948v19.414c0,1.858,1.515,3.366,3.383,3.366s3.383-1.508,3.383-3.366v-19.414
		c0-1.859-1.515-3.366-3.383-3.366S54.618,219.089,54.618,220.948z"/>
	<path fill="#1B427A" d="M58,247.223c-1.965,0-3.563,1.59-3.563,3.545c0,1.955,1.599,3.545,3.563,3.545s3.563-1.591,3.563-3.545
		C61.564,248.813,59.965,247.223,58,247.223z"/>
</g>
<g>
	<g>
		<path fill="#1B427A" d="M170.234,272.15c-2.589,0-5.104-0.75-7.272-2.168c-0.599-0.393-1.698-0.817-2.429-0.817h-28.09
			c-1.648,0-3.169-0.657-4.282-1.849c-1.111-1.192-1.677-2.77-1.595-4.441l0.352-7.042c0.014-0.275-0.078-0.531-0.258-0.72
			c-0.171-0.18-0.406-0.279-0.661-0.279h-2.056c-1.708,0-3.185-0.688-4.158-1.938c-0.968-1.24-1.29-2.849-0.905-4.531
			c0.404-1.78,0.975-4.259,1.77-7.708c1.866-8.089,8.273-11.796,11.926-13.285c0.21-0.086,0.348-0.208,0.378-0.335
			c0.03-0.131-0.042-0.307-0.199-0.483c-3.678-4.131-5.704-9.461-5.704-15.009c0-12.341,9.854-22.382,21.965-22.382
			s21.965,10.041,21.965,22.382c0,5.592-2.056,10.954-5.79,15.098c-0.158,0.176-0.232,0.353-0.202,0.485
			c0.029,0.131,0.163,0.252,0.376,0.341c4.371,1.834,9.949,5.612,11.697,13.189c0.541,2.341,0.976,4.231,1.324,5.759
			c0.167,0.733,0.82,1.741,1.328,2.253c2.58,2.604,4.003,6.064,4.007,9.742C183.721,265.986,177.671,272.15,170.234,272.15z
			 M170.229,248.671c-5.264,0-9.546,4.37-9.546,9.742c0,5.371,4.282,9.741,9.546,9.741c5.264,0,9.547-4.37,9.547-9.741
			C179.775,253.042,175.493,248.671,170.229,248.671z M135.907,229.735c-0.247,0.041-0.584,0.118-0.954,0.243
			c-3.451,1.174-9.49,4.221-11.152,11.426c-0.794,3.444-1.363,5.92-1.767,7.7c-0.158,0.688-0.054,1.313,0.292,1.758
			c0.345,0.443,0.917,0.688,1.612,0.688h4.415c0.532,0,1.024,0.209,1.386,0.59c0.37,0.388,0.559,0.905,0.532,1.455l-0.472,9.448
			c-0.037,0.768,0.217,1.486,0.713,2.019c0.494,0.527,1.179,0.82,1.926,0.822h25.949c0.246,0,0.338-0.064,0.351-0.086
			c0.017-0.028,0.029-0.167-0.122-0.427c-1.227-2.109-1.875-4.515-1.875-6.957c0-7.576,6.05-13.74,13.486-13.74
			c1.39,0,2.767,0.221,4.093,0.656c0.109,0.036,0.21,0.055,0.291,0.055c0.071,0,0.109-0.015,0.116-0.024
			c0.019-0.023,0.056-0.139,0-0.383l-0.825-3.576c-1.636-7.091-7.546-10.15-10.923-11.342c-0.424-0.15-0.835-0.23-1.107-0.252
			c0.023,0.229,0.093,0.597,0.241,1.044l3.029,9.124c0.554,1.671,0.372,3.283-0.514,4.54c-0.891,1.262-2.336,1.958-4.07,1.958
			h-23.412c-1.735,0-3.18-0.695-4.07-1.958c-0.886-1.257-1.069-2.869-0.514-4.54l3.093-9.319
			C135.785,230.269,135.863,229.957,135.907,229.735z M158.474,231.836c-0.132,0-0.268,0.031-0.402,0.093
			c-0.466,0.216-0.944,0.412-1.429,0.595c-0.676,0.253-1.464,0.989-1.722,1.607l-3.484,8.35c-0.091,0.217-0.097,0.41-0.017,0.53
			c0.077,0.116,0.242,0.18,0.464,0.18h8.676c0.658,0,1.166-0.207,1.431-0.582c0.264-0.376,0.292-0.94,0.08-1.585l-2.863-8.623
			C159.09,232.047,158.816,231.836,158.474,231.836z M139.255,231.689c-0.326,0-0.588,0.205-0.703,0.549l-2.916,8.787
			c-0.214,0.643-0.185,1.206,0.082,1.586c0.263,0.372,0.771,0.578,1.429,0.578h8.676c0.223,0,0.388-0.064,0.465-0.18
			c0.08-0.12,0.074-0.313-0.017-0.531l-3.525-8.446c-0.256-0.617-1.043-1.368-1.718-1.639c-0.461-0.186-0.916-0.387-1.361-0.603
			C139.527,231.723,139.39,231.689,139.255,231.689z M146.619,233.788c-0.145,0-0.257,0.033-0.292,0.086s-0.044,0.194,0.049,0.417
			l2.356,5.645c0.046,0.11,0.09,0.182,0.124,0.227c0.034-0.044,0.078-0.117,0.124-0.227l2.334-5.592
			c0.094-0.225,0.083-0.37,0.046-0.426c-0.04-0.06-0.161-0.097-0.316-0.097c-0.037,0-0.076,0.002-0.116,0.006
			c-0.654,0.066-1.298,0.099-1.912,0.099c-0.731,0-1.471-0.042-2.26-0.13C146.706,233.79,146.661,233.788,146.619,233.788z
			 M153.429,206.643c-5.348,7.431-15.753,9.511-21.485,10.089c-0.256,0.026-0.47,0.144-0.587,0.325
			c-0.111,0.171-0.129,0.382-0.054,0.609c2.581,7.763,9.698,12.978,17.711,12.978c3.784,0,7.437-1.158,10.563-3.349
			c0.532-0.373,0.934-0.714,1.07-0.839c0.066-0.113,0.176-0.203,0.308-0.247c0.154-0.113,0.566-0.451,1.009-0.885
			c2.155-2.114,3.801-4.759,4.76-7.648c0.073-0.221,0.057-0.431-0.049-0.607c-0.12-0.201-0.347-0.343-0.623-0.392
			C158.959,215.435,155.109,209.888,153.429,206.643z M149.014,192.448c-10.324,0-18.723,8.566-18.723,19.095
			c0,0.417,0.018,0.83,0.048,1.241c0.029,0.381,0.456,0.692,0.953,0.692c0.039,0,0.079-0.002,0.119-0.006
			c5.275-0.527,14.813-2.371,19.414-8.79c0.791-1.104,1.695-1.664,2.687-1.664c0.062,0,0.124,0.002,0.185,0.007
			c1.056,0.08,1.92,0.763,2.573,2.032c1.383,2.693,4.572,7.362,10.383,8.377c0.06,0.011,0.12,0.016,0.178,0.016
			c0.443,0,0.827-0.297,0.855-0.662c0.031-0.408,0.048-0.823,0.048-1.242C167.735,201.015,159.337,192.448,149.014,192.448z"/>
		<path fill="#1B427A" d="M149.016,189.661c11.836,0,21.465,9.815,21.465,21.882c0,5.692-2.153,10.87-5.661,14.764
			c-0.558,0.62-0.412,1.301,0.352,1.622c3.885,1.63,9.655,5.264,11.403,12.84c0.541,2.341,0.976,4.231,1.324,5.758
			c0.188,0.821,0.873,1.902,1.46,2.494c2.378,2.4,3.858,5.721,3.862,9.391c0,7.3-5.827,13.239-12.986,13.239
			c-2.582,0-4.989-0.772-6.998-2.087c-0.694-0.455-1.879-0.898-2.703-0.898h-28.09c-1.509,0-2.898-0.6-3.916-1.69
			c-1.019-1.093-1.537-2.538-1.461-4.075l0.352-7.042c0.041-0.843-0.594-1.524-1.419-1.524h-2.056c-1.551,0-2.888-0.62-3.764-1.745
			c-0.873-1.118-1.163-2.579-0.813-4.112c0.404-1.78,0.975-4.259,1.77-7.707c1.78-7.717,7.743-11.351,11.628-12.935
			c0.767-0.313,0.918-0.991,0.363-1.614c-3.459-3.885-5.577-9.029-5.577-14.677C127.551,199.476,137.179,189.661,149.016,189.661
			 M131.292,213.976c0.056,0,0.112-0.003,0.168-0.008c4.897-0.49,14.972-2.3,19.771-8.996c0.693-0.966,1.457-1.455,2.281-1.455
			c0.05,0,0.1,0.002,0.15,0.005c0.869,0.066,1.597,0.66,2.163,1.762c1.505,2.929,4.8,7.603,10.742,8.642
			c0.089,0.016,0.178,0.023,0.265,0.023c0.706,0,1.304-0.493,1.354-1.123c0.032-0.422,0.05-0.849,0.05-1.281
			c0-10.805-8.622-19.597-19.222-19.597c-10.601,0-19.223,8.792-19.223,19.595c0,0.43,0.019,0.854,0.05,1.277
			C129.89,213.476,130.539,213.976,131.292,213.976 M149.014,231.144c4.024,0,7.759-1.273,10.85-3.439
			c0.68-0.477,1.202-0.938,1.21-0.972c0.005-0.03,0.03-0.052,0.058-0.052c0.003,0,0.006,0,0.01,0.001h0
			c0.038,0,0.582-0.421,1.172-1.001c2.196-2.155,3.887-4.842,4.885-7.848c0.265-0.798-0.245-1.506-1.06-1.649
			c-6.841-1.198-10.59-6.508-12.299-9.835c-0.055-0.108-0.107-0.198-0.155-0.271c-0.05-0.076-0.133-0.114-0.219-0.114
			c-0.078,0-0.158,0.032-0.215,0.098c-0.06,0.068-0.129,0.154-0.206,0.261c-5.292,7.384-15.83,9.376-21.15,9.913
			c-0.821,0.083-1.331,0.791-1.065,1.589C133.399,225.558,140.568,231.144,149.014,231.144 M123.938,252.05h4.415
			c0.825,0,1.46,0.682,1.419,1.521l-0.472,9.447c-0.043,0.902,0.256,1.75,0.847,2.385c0.591,0.63,1.405,0.979,2.291,0.981h25.95
			c0.825,0,1.082-0.542,0.661-1.265c-1.145-1.968-1.808-4.257-1.808-6.705c0-7.302,5.828-13.24,12.986-13.24
			c1.373,0,2.695,0.224,3.937,0.631c0.165,0.054,0.314,0.08,0.447,0.08c0.499,0,0.751-0.368,0.604-1.018
			c-0.245-1.056-0.517-2.241-0.825-3.577c-1.708-7.402-7.948-10.538-11.244-11.702c-0.543-0.192-1.081-0.287-1.411-0.287
			c-0.145,0-0.25,0.019-0.296,0.055c-0.151,0.117-0.064,0.855,0.2,1.653l3.029,9.124c0.503,1.516,0.343,2.972-0.448,4.094
			c-0.793,1.124-2.094,1.746-3.661,1.746h-9.853H147h-9.853c-1.569,0-2.869-0.622-3.661-1.746s-0.951-2.579-0.448-4.094l3.093-9.319
			c0.265-0.798,0.392-1.507,0.287-1.588c-0.024-0.019-0.083-0.028-0.169-0.028c-0.282,0-0.855,0.101-1.456,0.305
			c-3.226,1.098-9.729,4.207-11.479,11.788c-0.794,3.445-1.363,5.921-1.768,7.702c-0.192,0.839-0.055,1.61,0.385,2.175
			C122.374,251.738,123.087,252.05,123.938,252.05 M137.147,243.689h8.676c0.827,0,1.233-0.628,0.909-1.403l-3.525-8.445
			c-0.322-0.777-1.225-1.602-1.993-1.911c-0.45-0.181-0.895-0.378-1.33-0.589c-0.21-0.103-0.424-0.151-0.628-0.151
			c-0.522,0-0.986,0.319-1.177,0.891l-2.916,8.788c-0.265,0.796-0.212,1.518,0.146,2.03
			C135.668,243.407,136.321,243.689,137.147,243.689 M151.884,243.691h8.676c0.826,0,1.479-0.284,1.839-0.793
			c0.359-0.512,0.41-1.231,0.146-2.03l-2.863-8.624c-0.192-0.582-0.671-0.908-1.208-0.908c-0.199,0-0.407,0.045-0.61,0.138
			c-0.457,0.211-0.924,0.403-1.397,0.582c-0.774,0.29-1.683,1.105-2.007,1.883l-3.484,8.35
			C150.65,243.063,151.059,243.691,151.884,243.691 M148.854,240.708c0.212,0,0.424-0.193,0.585-0.58l2.334-5.592
			c0.3-0.72-0.023-1.215-0.732-1.215c-0.053,0-0.108,0.002-0.166,0.008c-0.612,0.062-1.233,0.097-1.862,0.097
			c-0.746,0-1.48-0.047-2.205-0.127c-0.066-0.008-0.129-0.011-0.19-0.011c-0.69,0-1.001,0.484-0.706,1.195l2.356,5.646
			C148.431,240.515,148.643,240.708,148.854,240.708 M170.229,268.655c5.542,0,10.047-4.595,10.047-10.241
			c0-5.649-4.505-10.242-10.047-10.242c-5.538,0-10.046,4.593-10.046,10.242C160.183,264.06,164.69,268.655,170.229,268.655
			 M149.016,188.661c-12.387,0-22.465,10.265-22.465,22.882c0,5.671,2.071,11.119,5.83,15.342c0.006,0.006,0.012,0.013,0.017,0.019
			c-0.003,0.001-0.007,0.003-0.01,0.004c-3.743,1.526-10.308,5.327-12.225,13.636c-0.795,3.45-1.366,5.93-1.77,7.71
			c-0.418,1.83-0.063,3.588,1,4.949c1.069,1.373,2.686,2.13,4.552,2.13h2.056c0.149,0,0.245,0.067,0.299,0.124
			c0.084,0.089,0.127,0.214,0.121,0.352l-0.351,7.041c-0.09,1.808,0.524,3.515,1.728,4.807c1.208,1.295,2.859,2.009,4.647,2.009
			h28.09c0.561,0,1.547,0.336,2.155,0.735c2.25,1.473,4.86,2.25,7.546,2.25c7.712,0,13.986-6.388,13.986-14.239
			c-0.004-3.811-1.479-7.396-4.152-10.094c-0.519-0.523-1.066-1.445-1.195-2.013c-0.349-1.527-0.784-3.418-1.325-5.76
			c-1.89-8.193-8.324-11.999-11.99-13.537c-0.006-0.002-0.011-0.005-0.016-0.007c0.006-0.008,0.013-0.016,0.021-0.024
			c3.816-4.235,5.917-9.716,5.917-15.432C171.48,198.925,161.403,188.661,149.016,188.661L149.016,188.661z M131.292,212.976
			c-0.267,0-0.449-0.151-0.455-0.23c-0.031-0.428-0.047-0.821-0.047-1.203c0-10.253,8.175-18.595,18.223-18.595
			c10.047,0,18.222,8.342,18.222,18.597c0,0.392-0.016,0.798-0.047,1.205c-0.005,0.068-0.145,0.199-0.356,0.199
			c-0.031,0-0.062-0.002-0.093-0.008c-5.598-0.978-8.684-5.503-10.024-8.113c-0.918-1.786-2.126-2.237-2.977-2.302
			c-0.079-0.006-0.152-0.008-0.226-0.008c-1.162,0-2.203,0.63-3.093,1.872c-4.653,6.492-14.877,8.166-19.058,8.583
			C131.339,212.975,131.315,212.976,131.292,212.976L131.292,212.976z M149.014,230.144c-7.797,0-14.724-5.078-17.237-12.636
			c-0.018-0.055-0.033-0.13,0-0.18c0.034-0.052,0.115-0.089,0.217-0.099c5.65-0.57,15.783-2.585,21.365-9.663
			c1.894,3.377,5.792,8.41,12.607,9.603c0.13,0.023,0.235,0.082,0.279,0.156c0.012,0.02,0.043,0.073,0.003,0.193
			c-0.934,2.814-2.538,5.39-4.636,7.449c-0.398,0.39-0.75,0.682-0.906,0.803c-0.172,0.075-0.321,0.195-0.432,0.347
			c-0.145,0.129-0.512,0.437-0.986,0.769C156.248,229.017,152.694,230.144,149.014,230.144L149.014,230.144z M123.938,251.05
			c-0.537,0-0.969-0.176-1.217-0.495c-0.252-0.324-0.323-0.8-0.2-1.338c0.405-1.782,0.974-4.257,1.768-7.701
			c1.608-6.97,7.473-9.924,10.826-11.065c0.031-0.011,0.062-0.021,0.092-0.031c-0.008,0.026-0.017,0.053-0.026,0.08l-3.093,9.319
			c-0.605,1.824-0.4,3.595,0.58,4.985c0.986,1.399,2.577,2.169,4.479,2.169H147h3.707h9.853c0.575,0,1.122-0.07,1.632-0.208
			c-3.596,2.58-5.949,6.839-5.949,11.648c0,2.438,0.624,4.842,1.808,6.97h-25.611c-0.605-0.002-1.161-0.238-1.562-0.666
			c-0.401-0.431-0.607-1.02-0.577-1.653l0.471-9.445c0.034-0.688-0.204-1.336-0.669-1.825c-0.458-0.481-1.079-0.746-1.749-0.746
			H123.938L123.938,251.05z M164.54,245.406c0.18-0.186,0.346-0.386,0.498-0.602c0.98-1.39,1.186-3.16,0.581-4.985l-3.029-9.124
			c-0.03-0.091-0.057-0.178-0.08-0.259c0.099,0.027,0.201,0.059,0.304,0.096c3.281,1.158,9.021,4.125,10.603,10.983l0.367,1.592
			l0.381,1.65c-1.279-0.387-2.602-0.583-3.936-0.583C168.204,244.174,166.278,244.615,164.54,245.406L164.54,245.406z
			 M137.147,242.689c-0.484,0-0.857-0.134-1.022-0.368c-0.168-0.24-0.174-0.656-0.015-1.138l2.917-8.789
			c0.068-0.206,0.185-0.206,0.228-0.206c0.057,0,0.123,0.017,0.189,0.05c0.462,0.224,0.931,0.432,1.396,0.619
			c0.551,0.221,1.238,0.873,1.443,1.366l3.526,8.447c0.002,0.006,0.005,0.012,0.007,0.018H137.147L137.147,242.689z
			 M151.891,242.691c0.002-0.005,0.004-0.011,0.006-0.016l3.485-8.351c0.206-0.493,0.889-1.127,1.435-1.332
			c0.534-0.201,1.013-0.401,1.467-0.611c0.064-0.029,0.131-0.046,0.19-0.046l0,0c0.046,0,0.186,0,0.258,0.222l2.864,8.625
			c0.159,0.483,0.154,0.899-0.016,1.141c-0.165,0.232-0.537,0.367-1.021,0.367H151.891L151.891,242.691z M148.854,238.934
			l-1.927-4.617c0.724,0.074,1.408,0.109,2.086,0.109c0.566,0,1.156-0.027,1.756-0.082L148.854,238.934L148.854,238.934z
			 M170.229,267.655c-4.988,0-9.046-4.146-9.046-9.241c0-5.096,4.058-9.242,9.046-9.242c4.988,0,9.047,4.146,9.047,9.242
			C179.275,263.509,175.217,267.655,170.229,267.655L170.229,267.655z"/>
	</g>
	<g>
		<path fill="#1B427A" d="M170.308,262.134c-0.43,0-0.815-0.154-1.114-0.446c-0.307-0.297-0.463-0.721-0.463-1.26
			c0-0.57,0.087-1.058,0.266-1.49c0.175-0.418,0.409-0.791,0.695-1.109c0.273-0.299,0.627-0.643,1.053-1.024
			c0.363-0.325,0.627-0.568,0.788-0.731c0.133-0.137,0.248-0.292,0.339-0.458c0.073-0.135,0.109-0.279,0.109-0.438
			c0-0.339-0.116-0.606-0.366-0.841c-0.253-0.24-0.58-0.355-1-0.355c-0.493,0-0.844,0.113-1.045,0.335
			c-0.257,0.278-0.479,0.707-0.667,1.278c-0.35,1.176-1.156,1.354-1.605,1.354c-0.461,0-0.872-0.174-1.189-0.504
			c-0.318-0.333-0.479-0.707-0.479-1.112c0-0.656,0.205-1.322,0.608-1.979c0.399-0.652,0.985-1.196,1.741-1.618
			c0.755-0.421,1.642-0.635,2.635-0.635c0.921,0,1.75,0.178,2.463,0.529c0.729,0.357,1.302,0.854,1.703,1.477
			c0.404,0.625,0.608,1.317,0.608,2.057c0,0.587-0.121,1.113-0.359,1.563c-0.223,0.422-0.494,0.794-0.807,1.107
			c-0.28,0.28-0.785,0.749-1.509,1.411c-0.175,0.165-0.323,0.313-0.434,0.442c-0.116,0.137-0.174,0.23-0.202,0.286
			c-0.046,0.09-0.079,0.172-0.098,0.248c-0.037,0.125-0.081,0.316-0.142,0.592C171.69,261.646,171.131,262.134,170.308,262.134z"/>
		<path fill="#1B427A" d="M170.614,251.601c0.847,0,1.595,0.159,2.242,0.478c0.649,0.318,1.15,0.751,1.504,1.299
			s0.528,1.143,0.528,1.786c0,0.506-0.1,0.949-0.301,1.33s-0.441,0.71-0.719,0.987s-0.776,0.74-1.493,1.396
			c-0.196,0.185-0.357,0.347-0.478,0.488c-0.119,0.14-0.208,0.268-0.267,0.384c-0.059,0.114-0.105,0.23-0.136,0.347
			c-0.034,0.116-0.082,0.318-0.146,0.61c-0.11,0.619-0.456,0.929-1.042,0.929c-0.302,0-0.558-0.102-0.765-0.304
			c-0.209-0.202-0.313-0.503-0.313-0.902c0-0.503,0.076-0.933,0.228-1.299c0.152-0.364,0.354-0.687,0.604-0.965
			c0.251-0.274,0.59-0.605,1.016-0.986c0.374-0.335,0.646-0.585,0.811-0.753c0.165-0.17,0.307-0.36,0.421-0.568
			c0.112-0.208,0.171-0.435,0.171-0.679c0-0.477-0.176-0.878-0.523-1.205c-0.347-0.328-0.794-0.491-1.343-0.491
			c-0.643,0-1.115,0.167-1.416,0.5c-0.305,0.33-0.561,0.815-0.771,1.458c-0.2,0.673-0.577,1.009-1.13,1.009
			c-0.328,0-0.604-0.117-0.829-0.351c-0.225-0.235-0.339-0.491-0.339-0.766c0-0.565,0.178-1.137,0.534-1.717
			c0.356-0.582,0.876-1.063,1.559-1.443C168.906,251.791,169.705,251.601,170.614,251.601 M170.614,250.601
			c-1.08,0-2.048,0.235-2.879,0.698c-0.832,0.464-1.479,1.068-1.924,1.794c-0.452,0.735-0.682,1.489-0.682,2.239
			c0,0.531,0.213,1.034,0.615,1.456c0.417,0.433,0.953,0.66,1.553,0.66c0.474,0,1.625-0.168,2.088-1.724
			c0.197-0.601,0.407-0.913,0.547-1.065c0.105-0.116,0.351-0.178,0.681-0.178c0.381,0,0.557,0.124,0.655,0.217
			c0.15,0.142,0.211,0.28,0.211,0.479c0,0.076-0.016,0.139-0.051,0.204c-0.067,0.121-0.155,0.24-0.258,0.347
			c-0.174,0.177-0.518,0.487-0.76,0.705c-0.438,0.393-0.804,0.748-1.086,1.057c-0.329,0.365-0.593,0.785-0.789,1.254
			c-0.206,0.498-0.305,1.047-0.305,1.685c0,0.68,0.208,1.225,0.617,1.621c0.391,0.381,0.897,0.585,1.46,0.585
			c1.073,0,1.831-0.655,2.026-1.753c0.049-0.22,0.091-0.4,0.122-0.503c0.016-0.058,0.031-0.104,0.066-0.172
			c0.011-0.022,0.044-0.082,0.138-0.191c0.088-0.104,0.219-0.237,0.402-0.409c0.81-0.74,1.251-1.153,1.515-1.417
			c0.348-0.348,0.65-0.761,0.896-1.227c0.276-0.523,0.417-1.128,0.417-1.797c0-0.837-0.231-1.621-0.688-2.328
			c-0.452-0.7-1.092-1.257-1.904-1.655C172.516,250.796,171.612,250.601,170.614,250.601L170.614,250.601z"/>
	</g>
	<g>
		<path fill="#1B427A" d="M170.404,265.617c-0.48,0-0.905-0.16-1.264-0.477c-0.372-0.331-0.567-0.802-0.567-1.363
			c0-0.511,0.179-0.949,0.532-1.3s0.79-0.53,1.299-0.53c0.5,0,0.944,0.185,1.285,0.534c0.344,0.35,0.52,0.786,0.52,1.296
			c0,0.562-0.188,1.017-0.558,1.353C171.295,265.453,170.875,265.617,170.404,265.617z"/>
		<path fill="#1B427A" d="M170.404,262.447c0.367,0,0.678,0.128,0.928,0.384c0.252,0.256,0.377,0.571,0.377,0.946
			c0,0.417-0.131,0.744-0.394,0.982s-0.566,0.357-0.911,0.357c-0.356,0-0.666-0.116-0.933-0.352
			c-0.266-0.236-0.398-0.567-0.398-0.988c0-0.375,0.128-0.69,0.385-0.946S170.03,262.447,170.404,262.447 M170.404,261.447
			c-0.637,0-1.208,0.233-1.652,0.675c-0.444,0.442-0.679,1.015-0.679,1.655c0,0.895,0.399,1.438,0.734,1.735
			c0.449,0.396,1,0.604,1.597,0.604c0.591,0,1.138-0.213,1.583-0.617c0.329-0.299,0.722-0.84,0.722-1.723
			c0-0.637-0.23-1.207-0.665-1.648C171.609,261.684,171.042,261.447,170.404,261.447L170.404,261.447z"/>
	</g>
</g>
<path fill="#1B427A" d="M293,187.655l-0.073,11.735l-3.428-2.141c-0.925,1.348-1.859,2.633-2.802,3.89
	c0.19,0.337,0.317,0.72,0.317,1.13v62.685h0.726c1.279,0,2.322,1.048,2.322,2.351c0,1.294-1.043,2.351-2.322,2.351h-70.409
	c-1.288,0-2.331-1.057-2.331-2.351v-71.122c0-1.303,1.043-2.351,2.331-2.351c1.279,0,2.322,1.048,2.322,2.351v31.953
	c7.546,1.112,40.624,3.572,65.882-33.365l-2.893-1.795L293,187.655z M282.352,264.936v-58.421c-2.884,3.316-5.832,6.232-8.807,8.783
	v49.637L282.352,264.936L282.352,264.936L282.352,264.936z M268.893,264.954v-45.938c-1.406,1.03-2.812,1.996-4.218,2.888v43.05
	H268.893z M260.022,264.936v-40.299c-2.984,1.613-5.941,2.934-8.807,4.019v36.28H260.022L260.022,264.936z M246.563,264.954v-34.732
	c-1.669,0.501-3.292,0.92-4.871,1.267v33.465H246.563z M237.04,264.936v-32.563c-3.247,0.501-6.213,0.738-8.816,0.811v31.752H237.04
	L237.04,264.936z M223.571,264.954v-31.807c-1.569-0.073-2.884-0.191-3.918-0.31v32.117H223.571z"/>
<g>
	<path fill="#1B427A" d="M388.253,212.825l-24.071-24.355c-1.12-1.135-2.64-1.785-4.164-1.785c-1.404,0-2.704,0.537-3.667,1.51
		l-6.688,6.768c-1.042,1.051-1.581,2.539-1.482,4.078c0.093,1.431,0.717,2.798,1.754,3.846l3.302,3.342l-37.632,38.075
		c-2.333,2.358-3.617,5.498-3.617,8.835c0,3.338,1.284,6.474,3.617,8.836c2.334,2.361,5.436,3.66,8.733,3.66s6.399-1.299,8.733-3.66
		l33.56-33.953c0-0.003,0-0.003,0.002-0.003l4.07-4.118l3.301,3.337c1.12,1.138,2.639,1.788,4.167,1.788
		c1.401,0,2.704-0.537,3.667-1.511l6.688-6.767C390.609,218.639,390.486,215.085,388.253,212.825z M329.393,258.253
		c-1.351,1.367-3.147,2.119-5.057,2.119c-1.91,0-3.705-0.752-5.057-2.119c-1.351-1.367-2.094-3.184-2.094-5.115
		s0.743-3.75,2.094-5.116l19.01-19.234h20.226L329.393,258.253z M378.17,223.763c-0.119,0-0.31-0.064-0.489-0.245l-5.141-5.2
		c-1.016-1.027-2.66-1.027-3.676,0l-5.148,5.208h-20.227l15.262-15.439c1.016-1.027,1.016-2.692,0-3.72l-5.14-5.202
		c-0.233-0.234-0.257-0.476-0.272-0.483l6.679-6.736c0.119,0,0.31,0.064,0.487,0.244l24.071,24.354
		c0.233,0.234,0.254,0.475,0.272,0.482L378.17,223.763z"/>
	<path fill="#1B427A" d="M376.578,238.71c-1.804,2.469-7.688,10.879-7.688,15.404c0,5.453,4.388,9.893,9.778,9.893
		s9.778-4.439,9.778-9.893c0-4.525-5.885-12.935-7.689-15.404C379.78,237.367,377.558,237.367,376.578,238.71z M378.669,258.747
		c-2.522,0-4.576-2.079-4.576-4.632c0-1.47,2.114-5.458,4.576-9.24c2.465,3.778,4.577,7.766,4.577,9.24
		C383.246,256.667,381.191,258.747,378.669,258.747z"/>
</g>
<g>
	<path fill="#1B427A" d="M440.558,236.326l-0.99-0.039v-6.54h0.698c2.448,0,3.667,0.966,3.667,2.903l0.02,0.476h4.318v-0.596
		c0-2.57-0.611-4.322-1.844-5.269c-1.229-0.944-3.517-1.417-6.859-1.417v-2.543h-3.016v2.543c-3.496,0-5.896,0.493-7.191,1.477
		c-1.288,0.99-1.937,2.819-1.937,5.497c0,2.759,0.644,4.64,1.928,5.647c1.288,1.002,3.686,1.506,7.198,1.506v7.085l-0.662-0.017
		c-1.801,0-2.959-0.23-3.48-0.7c-0.522-0.467-0.787-1.504-0.787-3.116v-0.451h-4.462l-0.012,0.884c0,2.644,0.641,4.494,1.92,5.557
		c1.279,1.067,3.489,1.602,6.639,1.602l0.845,0.017v2.928h3.016v-2.928l0.916-0.017c3.162,0,5.369-0.556,6.638-1.67
		c1.265-1.115,1.899-3.052,1.899-5.815c0-2.565-0.578-4.33-1.738-5.29C446.12,237.077,443.878,236.502,440.558,236.326z
		 M436.556,236.141c-0.418-0.026-0.635-0.035-0.661-0.035c-2.632,0-3.946-1.084-3.946-3.252c0-2.068,1.322-3.107,3.964-3.107
		l0.644-0.018V236.141z M440.209,247.052h-0.642v-6.919c2.018,0,3.347,0.213,3.986,0.637c0.634,0.42,0.953,1.302,0.953,2.634
		C444.507,245.842,443.073,247.052,440.209,247.052z M447.929,209.999H428.25c-8.082,0-14.659,6.504-14.659,14.497v28.169
		c0,7.993,6.577,14.497,14.659,14.497h19.679c8.082,0,14.659-6.504,14.659-14.497v-28.169
		C462.588,216.502,456.011,209.999,447.929,209.999z M458.131,252.661c0,5.559-4.577,10.089-10.202,10.089H428.25
		c-5.625,0-10.202-4.53-10.202-10.089v-28.168c0-5.562,4.577-10.089,10.202-10.089h19.679c5.625,0,10.202,4.527,10.202,10.089
		V252.661z M448.04,204.365l7.352-19.207h-34.604l7.354,19.207H448.04z M448.94,189.567l-3.979,10.393h-13.745l-3.979-10.393H448.94
		z M423.074,206.232h30.036v2.204h-30.036V206.232z"/>
</g>
<g>
	<g>
		<path fill="#1B427A" d="M71.169,317.246c16.725,0,30.331,13.684,30.331,30.5c0,16.818-13.606,30.5-30.331,30.5
			c-5.753,0-11.354-1.627-16.194-4.709c-4.707-2.994-8.504-7.225-10.979-12.232l6.121-3.059
			c4.002,8.097,12.069,13.127,21.053,13.127c12.956,0,23.496-10.6,23.496-23.627s-10.54-23.627-23.496-23.627
			c-8.983,0-17.051,5.031-21.053,13.129l-6.121-3.059c2.476-5.01,6.272-9.24,10.979-12.234
			C59.815,318.875,65.416,317.246,71.169,317.246 M71.169,314.246c-6.324,0-12.481,1.79-17.805,5.178
			c-5.17,3.289-9.34,7.936-12.059,13.437l-1.323,2.678l2.672,1.335l6.121,3.059l2.695,1.347l1.335-2.701
			c3.493-7.067,10.529-11.458,18.363-11.458c11.302,0,20.496,9.253,20.496,20.627s-9.194,20.627-20.496,20.627
			c-7.834,0-14.871-4.39-18.363-11.456l-1.335-2.701l-2.695,1.347l-6.121,3.059l-2.672,1.335l1.324,2.678
			c2.719,5.501,6.889,10.146,12.059,13.435c5.32,3.387,11.477,5.178,17.805,5.178c18.379,0,33.331-15.028,33.331-33.5
			S89.548,314.246,71.169,314.246L71.169,314.246z"/>
	</g>
	<g>
		<path fill="#1B427A" d="M28.169,335.006l4.833,4.861l-4.418,4.443h42.585v6.873H28.583l4.419,4.443l-4.833,4.859L15.5,347.746
			L28.169,335.006 M28.169,330.751l-2.127,2.14l-12.669,12.74l-2.104,2.115l2.104,2.115l12.669,12.74l2.127,2.139l2.127-2.139
			l4.833-4.859l2.104-2.115l-1.436-1.443h35.371h3v-3v-6.873v-3h-3H35.798l1.435-1.443l-2.103-2.115l-4.833-4.861L28.169,330.751
			L28.169,330.751z"/>
	</g>
</g>
<g>
	<g>
		<path fill="#1B427A" d="M178.425,319.498c1.341,0,2.773,0.655,4.754,2.313c4.192,3.502,7.923,6.693,7.923,6.693
			s0.844,0.699,2.246,0.699c0.283,0,0.587-0.028,0.913-0.097c4.765-1.001,12.239-2.663,12.239-2.663v23.45
			c0,0-5.054,0.989-6.095,1.118c-0.515,0.064-1.578,0.355-2.807,0.355c-1.247,0-2.665-0.299-3.855-1.436
			c-3.646-3.47-16.595-16.26-16.595-16.26s-1.089-1.062-2.967-1.062c-0.812,0-1.77,0.198-2.852,0.766
			c-3.291,1.723-8.17,4.247-10.207,5.23c-0.853,0.451-1.673,0.644-2.434,0.644c-2.676,0-4.611-2.383-4.611-4.299
			c0-1.909,1.199-3.205,2.913-4.157c4.646-2.798,14.44-8.257,18.519-10.409C176.546,319.837,177.462,319.498,178.425,319.498
			 M157.88,319.852c4.775,0,6.954,2.743,6.954,2.743s-7.154,3.779-10.262,5.915c-2.211,1.37-3.693,3.784-3.693,6.557
			c0,4.273,3.495,7.713,7.803,7.74c0.006,0,0.012,0,0.018,0c0.76,0,2.356-0.363,4.566-1.515c2.028-0.947,4.723-2.189,6.816-3.101
			c0.671-0.292,1.305-0.405,1.885-0.405c2,0,3.358,1.344,3.358,1.344c7.528,7.492,0.948,0.955,14.937,14.847
			c0.018,0.012,0.041,0.024,0.06,0.035c1.332,1.335,1.332,3.496,0,4.819c-0.669,0.661-1.548,0.991-2.426,0.991
			c-0.878,0-1.755-0.33-2.419-0.991c-0.011-0.012-5.211-5.329-6.002-5.329c-0.031,0-0.055,0.009-0.072,0.025
			c-0.442,0.443,5.229,6.33,5.254,6.401c1.114,1.331,1.088,3.307-0.17,4.556c-0.66,0.655-1.521,0.979-2.385,0.979
			c-0.83,0-1.663-0.298-2.321-0.887c-0.011,0-7.016-6.491-7.884-6.491c-0.029,0-0.051,0.007-0.065,0.021
			c-0.458,0.455,5.559,5.778,5.559,5.778c0.102,0.104,0.375,0.363,0.44,0.426c1.332,1.328,1.335,3.487,0,4.813
			c-0.669,0.662-1.548,0.992-2.426,0.992s-1.755-0.33-2.421-0.992c-0.109-0.112-5.83-6.022-6.514-6.022
			c-0.021,0-0.037,0.006-0.048,0.017c-0.383,0.384,4.381,5.333,4.429,5.38c1.335,1.332,1.329,3.491,0,4.815
			c-0.669,0.663-1.548,0.994-2.426,0.994s-1.756-0.331-2.422-0.994c-0.681-0.681-1.772-1.889-1.802-1.928
			c-0.003-0.006-0.009-0.006-0.012-0.006c0.389-2.414-0.253-4.918-2.063-6.764c-0.922-0.937-2.066-1.618-3.332-1.984
			c-0.311-1.337-0.976-2.571-1.974-3.593c-0.885-0.904-1.982-1.565-3.193-1.938c-0.326-1.228-0.957-2.351-1.866-3.28
			c-0.883-0.903-1.981-1.563-3.194-1.934c-0.323-1.234-0.956-2.351-1.862-3.286c-1.491-1.525-3.589-2.286-5.729-2.286
			c-2.18,0-4.404,0.79-6.074,2.37c-1.009,0.973-1.735,2.151-2.186,3.427c-1.994-0.809-4.214-1.447-4.214-1.447V323.83l7.773,2.688
			c1.252,0.503,2.388,0.677,3.359,0.677c2.157,0,3.502-0.855,3.502-0.855S153.107,319.852,157.88,319.852 M140.968,349.879
			c1.147,0,2.258,0.415,3.08,1.252c1.087,1.109,1.318,2.687,0.9,4.166c0.393-0.09,0.79-0.137,1.182-0.137
			c1.11,0,2.179,0.373,2.98,1.183c1.086,1.112,1.318,2.689,0.897,4.171c0.393-0.089,0.791-0.136,1.184-0.136
			c1.111,0,2.18,0.37,2.978,1.182c1.202,1.228,1.412,3.018,0.785,4.618c0.505-0.157,1.023-0.238,1.533-0.238
			c1.116,0,2.191,0.388,2.996,1.207c1.697,1.739,1.513,4.645-0.417,6.478c-1.173,1.112-3.091,1.88-4.801,1.88
			c-1.111,0-2.134-0.324-2.809-1.088c-1.718-1.926-0.381-3.645,0.243-5.238c-0.909,0.28-2.08,0.705-3.197,0.705
			c-0.871,0-1.71-0.259-2.366-1.048c-1.481-1.796-0.285-3.31,0.134-4.783c-0.861,0.193-1.933,0.661-2.98,0.661
			c-0.781,0-1.548-0.26-2.205-1.087c-1.541-1.937-0.29-3.312,0.128-4.792c-0.862,0.195-1.877,0.668-2.911,0.668
			c-0.767,0-1.543-0.261-2.274-1.09c-1.717-1.955-0.485-5.276,1.438-7.109C138.468,350.355,139.738,349.879,140.968,349.879
			 M178.425,316.498c-1.757,0-3.23,0.66-4.317,1.234c-1.506,0.795-3.875,2.086-6.494,3.539l-0.431-0.543
			c-0.315-0.396-3.254-3.877-9.303-3.877c-5.327,0-14.378,5.675-16.316,6.932c-0.134,0.07-0.842,0.412-1.931,0.412
			c-0.727,0-1.48-0.154-2.24-0.46l-0.069-0.028l-0.07-0.023l-7.773-2.688l-3.98-1.377v4.212v26.834v2.257l2.17,0.626
			c0.021,0.006,2.1,0.607,3.917,1.345l0.671,0.271c-0.227,1.858,0.193,3.721,1.518,5.229c1,1.134,2.233,1.828,3.608,2.041
			c0.119,0.949,0.502,1.989,1.355,3.062c0.973,1.225,2.247,1.963,3.719,2.163c0.11,0.973,0.493,2.027,1.366,3.087
			c0.71,0.854,1.916,1.845,3.802,2.085c0.075,1.131,0.501,2.36,1.593,3.584c1.188,1.345,2.984,2.091,5.048,2.091
			c2.476,0,5.106-1.036,6.865-2.702c0.454-0.431,0.853-0.91,1.192-1.423h0.547c0.387,0.415,0.782,0.828,1.009,1.055
			c1.216,1.21,2.828,1.873,4.543,1.873c1.714,0,3.326-0.661,4.538-1.863c0.691-0.688,1.205-1.504,1.521-2.393
			c0.303,0.043,0.611,0.064,0.922,0.064c1.712,0,3.323-0.66,4.535-1.859c0.8-0.794,1.363-1.759,1.657-2.813
			c0.167,0.013,0.336,0.02,0.505,0.02c1.7,0,3.298-0.657,4.5-1.85c1.073-1.066,1.689-2.416,1.838-3.813
			c1.508-0.124,2.909-0.766,3.993-1.836c1.217-1.209,1.886-2.814,1.89-4.524c0.002-1.051-0.246-2.063-0.717-2.968
			c1.179,0.594,2.515,0.895,3.995,0.895c1.176,0,2.171-0.189,2.83-0.315c0.14-0.026,0.259-0.051,0.354-0.063
			c1.082-0.135,5.433-0.982,6.294-1.15l2.424-0.475v-2.47v-23.45v-3.74l-3.651,0.812c-0.074,0.017-7.512,1.67-12.205,2.656
			c-0.102,0.021-0.202,0.032-0.296,0.032c-0.039,0-0.332-0.01-0.332-0.01c-0.001-0.001-3.755-3.212-7.913-6.686
			C182.615,317.427,180.555,316.498,178.425,316.498L178.425,316.498z"/>
	</g>
</g>
<g>
	<g>
		<path fill="#1B427A" d="M315.601,351.402v-16.906h-6.804c-0.801-3.064-2.029-5.986-3.664-8.717l4.813-4.748l-12.12-11.953
			l-4.814,4.746c-2.769-1.613-5.731-2.826-8.839-3.613V303.5h-17.143v6.711c-3.107,0.789-6.07,2-8.838,3.613l-4.814-4.746
			l-12.12,11.953l4.813,4.748c-1.635,2.73-2.865,5.652-3.664,8.717h-6.804v16.906h6.804c0.8,3.064,2.029,5.986,3.664,8.717
			l-4.813,4.748l12.12,11.953l4.817-4.749c0.563,0.321,1.17,0.637,1.803,0.951c-0.067,0.298-0.11,0.604-0.11,0.923
			c0,1.5,0.803,2.813,2.001,3.563c-0.354,0.616-0.573,1.316-0.573,2.072c0,1.501,0.803,2.814,2.001,3.564
			c-0.354,0.615-0.573,1.315-0.573,2.072c0,2.33,1.923,4.227,4.286,4.227h17.143c2.363,0,4.286-1.896,4.286-4.227
			c0-0.757-0.219-1.457-0.573-2.072c1.199-0.75,2.001-2.063,2.001-3.564c0-0.756-0.219-1.456-0.573-2.072
			c1.199-0.749,2.001-2.063,2.001-3.563c0-0.318-0.043-0.625-0.11-0.924c0.631-0.313,1.24-0.629,1.803-0.951l4.817,4.749
			l12.12-11.953l-4.813-4.749c1.638-2.729,2.866-5.652,3.664-8.717h6.805L315.601,351.402L315.601,351.402z M264.487,374.559
			c-0.767,0-1.389-0.614-1.389-1.371c0-0.756,0.623-1.369,1.389-1.369h22.228c0.767,0,1.389,0.613,1.389,1.369
			c0,0.757-0.622,1.371-1.389,1.371h-1.389h-19.449H264.487z M271.433,357.601c0.803,0.331,1.682,0.517,2.605,0.517h0.173v4.11
			h2.778v-4.11h0.174c0.922,0,1.802-0.186,2.605-0.517v11.478h-8.335V357.601L271.433,357.601z M286.714,378.668
			c0,0.757-0.623,1.37-1.389,1.37h-1.389h-16.671h-1.389c-0.767,0-1.389-0.613-1.389-1.37c0-0.756,0.622-1.369,1.389-1.369h19.449
			C286.092,377.299,286.714,377.912,286.714,378.668z M283.936,385.519h-16.67c-0.767,0-1.39-0.614-1.39-1.37s0.623-1.37,1.39-1.37
			h16.67c0.767,0,1.389,0.614,1.389,1.37S284.703,385.519,283.936,385.519z M305.43,349.6c-0.768,3.416-2.127,6.65-4.039,9.612
			l-0.6,0.928l4.279,4.222l-7.857,7.748l-4.28-4.22l-0.941,0.591c-0.807,0.508-1.728,0.994-2.727,1.48
			c-0.708-0.545-1.585-0.883-2.55-0.883h-4.168v-13.631c0.86-1.119,1.389-2.498,1.389-4.009v-0.343c0-3.683-3.038-6.68-6.772-6.68
			h-3.126c-2.202,0-3.994-1.767-3.994-3.938v-0.344c0-2.171,1.792-3.938,3.994-3.938h3.126c2.202,0,3.994,1.767,3.994,3.938v0.172
			h2.778v-0.172c0-3.682-3.038-6.678-6.772-6.678h-0.174v-4.111h-2.778v4.109h-0.173c-3.734,0-6.772,2.997-6.772,6.68v0.342
			c0,3.684,3.038,6.68,6.772,6.68h3.125c2.202,0,3.994,1.768,3.994,3.939v0.342c0,2.172-1.792,3.939-3.994,3.939h-3.125
			c-2.202,0-3.994-1.371-3.994-4.111h-2.778c0,1.371,0.529,3.06,1.389,4.181v13.631h-4.168c-0.965,0-1.842,0.338-2.55,0.884
			c-0.999-0.486-1.92-0.973-2.728-1.481l-0.94-0.591l-4.28,4.221l-7.857-7.75l4.279-4.221l-0.599-0.928
			c-1.913-2.961-3.271-6.193-4.04-9.612l-0.242-1.073h-6.048v-10.961h6.048l0.242-1.072c0.768-3.417,2.127-6.65,4.04-9.613
			l0.599-0.927l-4.279-4.22l7.857-7.75l4.28,4.221l0.94-0.591c3.002-1.887,6.281-3.227,9.747-3.984l1.088-0.238v-5.966h11.114v5.966
			l1.088,0.238c3.464,0.757,6.743,2.098,9.747,3.984l0.941,0.591l4.28-4.221l7.857,7.75l-4.279,4.221l0.6,0.928
			c1.912,2.96,3.271,6.193,4.039,9.612l0.242,1.073h6.049v10.96h-6.049L305.43,349.6z"/>
	</g>
</g>
<g>
	<path fill-rule="evenodd" clip-rule="evenodd" fill="#3D3A3F" d="M382.5,311.977c0-0.424,0.35-0.769,0.786-0.769h6.519
		l-2.766-2.702c-0.306-0.298-0.306-0.785,0-1.089l0.742-0.726c0.305-0.298,0.803-0.298,1.115,0l5.372,5.249
		c0.153,0.149,0.231,0.346,0.231,0.543c0,0.196-0.078,0.394-0.231,0.543l-5.372,5.249c-0.307,0.299-0.805,0.299-1.115,0
		l-0.742-0.726c-0.306-0.298-0.306-0.784,0-1.089l2.766-2.692h-6.515c-0.434,0-0.786-0.345-0.786-0.769L382.5,311.977z"/>
</g>
<g>
	<path fill-rule="evenodd" clip-rule="evenodd" fill="#FFFFFF" d="M398.309,341.895c-0.184-0.392-0.465-0.692-0.842-0.9
		c-0.377-0.209-0.792-0.313-1.244-0.313h-2.414v-2.046c0-0.784-0.276-1.458-0.829-2.021c-0.554-0.563-1.216-0.844-1.985-0.844
		h-6.838v-0.409c0-0.784-0.277-1.458-0.83-2.021s-1.215-0.844-1.986-0.844h-4.021c-0.771,0-1.434,0.281-1.986,0.844
		s-0.83,1.236-0.83,2.021v12.275c0,0.785,0.277,1.458,0.83,2.021c0.553,0.563,1.215,0.845,1.986,0.845h13.676
		c0.561,0,1.147-0.147,1.76-0.442c0.611-0.294,1.098-0.667,1.457-1.118l3.709-4.643c0.385-0.494,0.578-1.005,0.578-1.533
		C398.498,342.458,398.436,342.169,398.309,341.895z M376.111,335.361c0-0.341,0.117-0.631,0.352-0.869s0.52-0.358,0.855-0.358
		h4.021c0.336,0,0.621,0.119,0.855,0.358c0.234,0.238,0.352,0.528,0.352,0.869v0.818c0,0.342,0.117,0.632,0.352,0.869
		c0.234,0.239,0.52,0.358,0.855,0.358h7.24c0.334,0,0.619,0.12,0.854,0.358c0.234,0.238,0.352,0.528,0.352,0.869v2.046h-9.653
		c-0.57,0-1.156,0.147-1.76,0.441c-0.604,0.295-1.09,0.667-1.458,1.119l-3.218,4.027V335.361z M396.662,343.264l-3.695,4.642
		c-0.209,0.265-0.507,0.49-0.893,0.678c-0.385,0.188-0.746,0.281-1.08,0.281h-13.676c-0.444,0-0.666-0.149-0.666-0.448
		c0-0.136,0.074-0.307,0.226-0.511l3.695-4.642c0.218-0.265,0.518-0.488,0.899-0.672c0.381-0.183,0.738-0.274,1.074-0.274h13.676
		c0.443,0,0.666,0.149,0.666,0.448C396.889,342.91,396.813,343.076,396.662,343.264z"/>
</g>
<g>
	<path fill-rule="evenodd" clip-rule="evenodd" fill="#FFFFFF" d="M406,312.607c0-0.352,0.291-0.607,0.655-0.607h5.432l-2.305-2.276
		c-0.255-0.248-0.255-0.668,0-0.92l0.618-0.612c0.256-0.246,0.67-0.251,0.93-0.004l4.478,4.361c0.127,0.124,0.192,0.286,0.192,0.45
		c0,0.163-0.065,0.327-0.192,0.45l-4.478,4.363c-0.254,0.248-0.67,0.248-0.93,0l-0.618-0.604c-0.255-0.248-0.255-0.186,0-0.438
		l2.305-1.771h-5.429c-0.361,0-0.655-0.739-0.655-1.091L406,312.607z"/>
</g>
<g>
	<path fill-rule="evenodd" clip-rule="evenodd" fill="#FFFFFF" d="M452.107,311.522c-0.004,0.029-0.021,0.117-0.054,0.268
		c-0.122,0.545-0.302,1.073-0.536,1.581c-0.861,2.033-2.76,5.157-6.912,8.503c-0.104,0.084-0.23,0.126-0.355,0.126
		s-0.251-0.042-0.355-0.126c-4.157-3.346-6.051-6.47-6.913-8.503c-0.233-0.508-0.414-1.04-0.535-1.581
		c-0.033-0.15-0.05-0.238-0.054-0.268c-0.097-0.495-0.143-1.003-0.143-1.506c0-4.419,3.588-8.017,7.996-8.017
		c4.407,0,7.995,3.598,8.004,8.017C452.25,310.52,452.199,311.027,452.107,311.522z M444.246,303.128
		c-3.785,0-6.867,3.09-6.867,6.885c0,0.44,0.042,0.876,0.126,1.308c0,0.013,0.004,0.021,0.004,0.029
		c0.004,0.021,0.013,0.084,0.038,0.181c0,0.004,0,0.004,0,0.009c0.108,0.47,0.263,0.931,0.464,1.366
		c0.004,0.005,0.004,0.013,0.008,0.018c0.782,1.857,2.497,4.691,6.228,7.781c3.729-3.09,5.444-5.924,6.227-7.781
		c0.004-0.005,0.004-0.013,0.008-0.018c0.205-0.439,0.36-0.896,0.465-1.366c0-0.005,0-0.005,0-0.009
		c0.021-0.097,0.033-0.159,0.037-0.181c0-0.008,0.005-0.017,0.005-0.024c0.083-0.428,0.125-0.868,0.125-1.313
		C451.112,306.218,448.03,303.128,444.246,303.128z M444.246,315.195c-2.798,0-5.077-2.285-5.077-5.091
		c0-2.805,2.279-5.09,5.077-5.09c2.797,0,5.076,2.285,5.076,5.09C449.322,312.91,447.043,315.195,444.246,315.195z M444.246,306.146
		c-2.175,0-3.948,1.778-3.948,3.958c0,2.181,1.77,3.958,3.948,3.958s3.947-1.777,3.947-3.958
		C448.193,307.925,446.42,306.146,444.246,306.146z"/>
</g>
<g>
	<path fill-rule="evenodd" clip-rule="evenodd" fill="#FFFFFF" d="M471.858,318.813c0.94-0.83,2.109-3.509,0-5.64
		c-1.248-1.215-3.104-1.499-4.637-0.714c-0.449-0.415-2.223-2.188-2.639-2.638c0.786-1.534,0.501-3.39-0.713-4.639
		c-2.13-2.109-4.809-0.94-5.639,0c-2.244,2.244-0.766,4.573,0,5.781c1.084,1.739,4.314,5.637,7.848,7.849
		C467.293,319.571,469.619,321.054,471.858,318.813z M466.758,317.599c-3.7-2.405-6.311-5.761-7.313-7.314
		c-0.356-0.535-1.708-2.278-0.179-4.034c0.405-0.464,2.145-1.424,3.567,0c0.892,0.892,0.998,2.247,0.251,3.283
		c-0.213,0.284-0.179,0.642,0.034,0.926c0.538,0.59,2.867,2.923,3.457,3.458c0.285,0.213,0.642,0.251,0.927,0.034
		c1.035-0.747,2.391-0.642,3.282,0.251c1.423,1.424,0.463,3.166,0,3.568C469.032,319.307,467.297,317.948,466.758,317.599z"/>
</g>
<g>
	<path fill-rule="evenodd" clip-rule="evenodd" fill="#FFFFFF" d="M493.043,315.371v-4.277h-14.004v4.277h-2.906v-6.107
		c0-0.529,0.434-0.961,0.969-0.961h17.882c0.532,0,0.962,0.432,0.963,0.961v6.107H493.043z M478.88,309.121
		c-0.423,0-0.771,0.344-0.771,0.768s0.348,0.766,0.771,0.766c0.426,0,0.773-0.342,0.774-0.766
		C479.654,309.465,479.306,309.121,478.88,309.121z M493.874,309.266h-13.397v0.922h13.397V309.266z M480.477,303.041h11.128v3.174
		h-11.128V303.041z M482.438,314.238h7.08v1.215h-7.08V314.238z M489.584,318.205h-7.082v-1.213h7.082V318.205z M481.743,319.658
		l2.348-0.014h6.232l0.016-7.418h1.405v7.232c0,0.828-0.113,1.5-0.998,1.5c0,0-8.059,0-9.261,0c-1.199,0-1.146-1.162-1.146-1.162
		v-7.57h1.404V319.658z"/>
</g>
<g>
	<g>
		<path fill="#FFFFFF" d="M515.556,304.497c0.092,0,0.183,0.036,0.252,0.104c0.101,0.1,0.134,0.249,0.086,0.383l-4.779,13.164
			c-0.121,0.332-0.39,0.589-0.727,0.692c-0.107,0.033-0.218,0.049-0.328,0.049c-0.235,0-0.468-0.074-0.661-0.216l-4.468-3.271
			l10.264-10.176l-11.607,9.19l-3.268-2.394c-0.299-0.218-0.454-0.583-0.406-0.952c0.049-0.368,0.294-0.68,0.639-0.813l14.874-5.736
			C515.468,304.505,515.512,304.497,515.556,304.497 M502.812,315.212l3.862,2.785c0.031,0.045-1.123,0.806-2.006,1.379
			c-0.128,0.083-0.276,0.126-0.424,0.126c-0.106,0-0.212-0.021-0.312-0.065c-0.24-0.105-0.412-0.322-0.459-0.582l-0.635-3.489
			L502.812,315.212 M515.556,303.497c-0.17,0-0.337,0.031-0.495,0.094l-14.868,5.734c-0.688,0.267-1.174,0.885-1.271,1.614
			c-0.096,0.735,0.215,1.459,0.809,1.893l1.888,1.382l0.209,1.174l0.027,0.153l0.636,3.492c0.105,0.586,0.494,1.079,1.04,1.319
			c0.228,0.099,0.467,0.149,0.714,0.149c0.345,0,0.679-0.1,0.968-0.287c1.633-1.06,2.131-1.39,2.317-1.67l1.278,0.936
			c0.366,0.268,0.799,0.409,1.252,0.409c0.211,0,0.42-0.031,0.621-0.093c0.633-0.194,1.146-0.683,1.373-1.306l4.779-13.166
			c0.18-0.502,0.053-1.063-0.321-1.435C516.255,303.637,515.915,303.497,515.556,303.497L515.556,303.497z"/>
	</g>
</g>
<g>
	<path fill-rule="evenodd" clip-rule="evenodd" fill="#502E61" d="M42.865,445.5c-10.94,0-19.809-8.954-19.809-20
		s8.868-20,19.809-20c10.939,0,19.808,8.954,19.808,20S53.805,445.5,42.865,445.5z M42.865,408.625
		c-9.231,0-16.714,7.555-16.714,16.875s7.482,16.875,16.714,16.875c9.23,0,16.713-7.555,16.713-16.875
		S52.096,408.625,42.865,408.625z M47.565,422.438l-0.532,3.53H44.12c0,4.481,0,9.531,0,9.531h-3.431c0,0,0-4.999,0-9.531h-2.525
		v-3.53h2.525v-2.745c0-1.639,0.795-4.193,4.275-4.193l2.551,0.014v3.427c0,0-1.855,0-2.226,0c-0.372,0-1.17,0.18-1.17,0.959v2.539
		H47.565z"/>
</g>
<g>
	<path fill-rule="evenodd" clip-rule="evenodd" fill="#502E61" d="M90.094,445.5c-10.941,0-19.809-8.954-19.809-20
		s8.867-20,19.809-20c10.939,0,19.808,8.954,19.808,20S101.033,445.5,90.094,445.5z M90.094,408.625
		c-9.231,0-16.714,7.555-16.714,16.875s7.482,16.875,16.714,16.875c9.23,0,16.713-7.555,16.713-16.875
		S99.324,408.625,90.094,408.625z M98.016,421.126c0,0.023,0.003,0.046,0.003,0.067c0,0.018-0.003,0.037-0.003,0.057
		c0,0.007,0.003,0.016,0.003,0.024c0.275,7.166-4.845,12.976-11.438,12.976c-2.32,0-4.512-0.72-6.392-1.966
		c2.768,0.478,5.004-1.02,5.659-1.843c-1.839,0-3.522-1.709-3.652-3.018c0.371,0.063,1.22,0.143,1.701-0.139
		c-2.496-0.744-3.182-2.795-3.152-4.342c0.417,0.441,1.305,0.541,1.784,0.501c-1.406-0.945-2.477-3.538-1.239-5.87
		c2.017,2.855,5.596,4.523,8.657,4.609h0.001c-0.068-0.318-0.105-0.649-0.105-0.99c0-2.454,1.831-4.443,4.087-4.443
		c1.163,0,2.21,0.527,2.955,1.374c-0.002-0.001-0.002-0.003-0.002-0.003c0.653,0,1.975-0.582,2.55-0.981
		c-0.219,0.913-1.104,2.063-1.703,2.413c0.934-0.101,1.935-0.499,2.268-0.699C99.421,419.894,98.615,420.682,98.016,421.126z"/>
</g>
<g>
	<path fill-rule="evenodd" clip-rule="evenodd" fill="#502E61" d="M136.614,445.5c-10.94,0-19.809-8.954-19.809-20
		s8.868-20,19.809-20s19.809,8.954,19.809,20S147.555,445.5,136.614,445.5z M136.614,408.625c-9.231,0-16.714,7.555-16.714,16.875
		s7.482,16.875,16.714,16.875c9.23,0,16.713-7.555,16.713-16.875S145.845,408.625,136.614,408.625z M142.901,435.5h-12.573
		c-1.998,0-3.618-1.675-3.618-3.734v-3.461c0-2.063,1.62-3.734,3.618-3.734h12.573c1.999,0,3.617,1.672,3.617,3.734v3.461
		C146.519,433.825,144.9,435.5,142.901,435.5z M133.024,426.398h-2.706v0.908h0.886v6.361h0.906v-6.361h0.914V426.398z
		 M135.71,428.238h-0.889v4.192c-0.089,0.103-0.242,0.193-0.349,0.261c-0.105,0.071-0.251,0.105-0.318,0.105
		c-0.089,0-0.152-0.027-0.193-0.078c-0.039-0.054-0.06-0.137-0.06-0.252v-4.229h-0.913v4.565c0,0.295,0.082,0.514,0.193,0.662
		c0.11,0.149,0.274,0.222,0.492,0.222c0.179,0,0.361-0.048,0.548-0.158c0.189-0.104,0.37-0.317,0.544-0.513l0,0v0.656h0.944V428.238
		z M139.315,429.367c0-0.407-0.079-0.719-0.235-0.932c-0.154-0.212-0.387-0.323-0.683-0.323c-0.148,0-0.293,0.04-0.438,0.119
		c-0.136,0.08-0.329,0.197-0.459,0.349v-2.182h-0.896v7.216h0.951v-0.383c0.126,0.156,0.262,0.267,0.403,0.337
		c0.144,0.075,0.309,0.114,0.496,0.114c0.277,0,0.491-0.1,0.642-0.286c0.145-0.188,0.219-0.457,0.219-0.812V429.367z
		 M142.906,430.046c0-0.45-0.111-1.216-0.342-1.462c-0.221-0.239-0.544-0.358-0.966-0.358c-0.409,0-0.739,0.127-1.002,0.393
		c-0.259,0.256-0.391,1.017-0.391,1.428v2.148c0,0.46,0.12,0.822,0.355,1.079c0.237,0.266,0.559,0.396,0.972,0.396
		c0.454,0,0.797-0.126,1.029-0.37c0.232-0.247,0.343-0.615,0.343-1.105v-0.248h-0.942v0.216c0,0.287-0.034,0.464-0.094,0.547
		s-0.164,0.125-0.313,0.125c-0.151,0-0.251-0.05-0.313-0.146c-0.061-0.099-0.093-0.271-0.093-0.525v-1.209h1.756V430.046z
		 M141.561,429.06c0.14,0,0.246,0.044,0.306,0.131c0.063,0.084,0.097,0.647,0.097,0.851v0.168h-0.813v-0.168
		c0-0.203,0.034-0.767,0.097-0.851C141.31,429.104,141.416,429.06,141.561,429.06z M138.01,432.897
		c-0.081,0-0.155-0.019-0.227-0.057c-0.076-0.035-0.208-0.097-0.283-0.176v-3.556c0.067-0.066,0.188-0.119,0.251-0.149
		c0.067-0.033,0.132-0.048,0.201-0.048c0.125,0,0.223,0.039,0.296,0.126c0.063,0.089,0.18,0.216,0.18,0.383l0,0v3.026
		c0,0.16-0.111,0.274-0.163,0.342C138.21,432.861,138.124,432.897,138.01,432.897z M140.195,421.688
		c-0.238,0.437-0.462,0.728-0.734,0.937c-0.354,0.273-0.743,0.25-0.866,0.125c-0.182-0.186-0.211-0.685-0.211-1.028V417.3h0.904
		v4.03c0,0.136,0.024,0.231,0.071,0.292c0.049,0.061,0.069,0.09,0.174,0.09c0.084,0,0.556-0.645,0.662-0.77V417.3h0.903v5.358
		h-0.903V421.688z M137.497,421.24c0,0.488-0.145,0.871-0.435,1.147c-0.296,0.273-0.361,0.412-0.873,0.412
		c-0.492,0-0.635-0.142-0.931-0.425c-0.295-0.289-0.445-0.674-0.445-1.159v-2.388c0-0.439,0.135-0.814,0.439-1.078
		c0.305-0.259,0.447-0.455,0.961-0.455c0.468,0,0.61,0.167,0.896,0.455c0.247,0.25,0.388,0.678,0.388,1.113l0,0V421.24z
		 M136.604,418.787c0-0.126-0.048-0.226-0.139-0.302c-0.094-0.078-0.157-0.116-0.307-0.116c-0.139,0-0.25,0.038-0.336,0.116
		c-0.085,0.076-0.129,0.176-0.129,0.302v2.535c0,0.158,0.04,0.279,0.122,0.363c0.077,0.085,0.193,0.128,0.343,0.128
		c0.154,0,0.216-0.043,0.31-0.128c0.089-0.09,0.136-0.208,0.136-0.363V418.787z M133.02,422.771h-0.934v-2.153l-1.626-5.117h1.282
		l0.824,3.086h0.078l0.786-3.086h1.293l-1.704,4.976V422.771z"/>
</g>
<g>
	<path fill-rule="evenodd" clip-rule="evenodd" fill="#502E61" d="M188.135,445.5c-10.94,0-19.809-8.954-19.809-20
		s8.868-20,19.809-20s19.809,8.954,19.809,20S199.075,445.5,188.135,445.5z M188.135,408.625c-9.23,0-16.713,7.555-16.713,16.875
		s7.482,16.875,16.713,16.875c9.231,0,16.714-7.555,16.714-16.875S197.366,408.625,188.135,408.625z M194.332,426.741
		c-0.053-0.294-0.901-2.396-2.476-2.5c-2.931-0.391-3.714,2.18-3.714,2.5v8.75h-3.715v-15h3.715v2.5
		c0.208-0.105,1.772-2.446,4.952-2.5c4.064,0.054,4.807,3.134,4.938,4.633v10.385l-3.7-0.018V426.741z M178.238,420.491h3.714v15
		h-3.714V420.491z M180.096,419.241c-1.025,0-1.857-0.838-1.857-1.875c0-1.036,0.832-1.875,1.857-1.875
		c1.024,0,1.856,0.839,1.856,1.875C181.952,418.403,181.12,419.241,180.096,419.241z"/>
</g>
<rect id="_x3C_Slice_x3E_" x="29" y="20" fill-rule="evenodd" clip-rule="evenodd" fill="none" width="100" height="119"/>
<rect id="_x3C_Slice_x3E__1_" x="163" y="28" fill-rule="evenodd" clip-rule="evenodd" fill="none" width="81" height="105"/>
<rect id="_x3C_Slice_x3E__2_" x="265" y="28" fill-rule="evenodd" clip-rule="evenodd" fill="none" width="110" height="80"/>
<rect id="_x3C_Slice_x3E__3_" x="406" y="32" fill-rule="evenodd" clip-rule="evenodd" fill="none" width="108" height="108"/>
<rect id="_x3C_Slice_x3E__4_" x="406" y="308" fill-rule="evenodd" clip-rule="evenodd" fill="none" width="10" height="10"/>
<rect id="_x3C_Slice_x3E__5_" x="434" y="302" fill-rule="evenodd" clip-rule="evenodd" fill="none" width="20" height="20"/>
<rect id="_x3C_Slice_x3E__6_" x="455" y="302" fill-rule="evenodd" clip-rule="evenodd" fill="none" width="20" height="20"/>
<rect id="_x3C_Slice_x3E__7_" x="476" y="302" fill-rule="evenodd" clip-rule="evenodd" fill="none" width="20" height="20"/>
<rect id="_x3C_Slice_x3E__8_" x="498" y="302" fill-rule="evenodd" clip-rule="evenodd" fill="none" width="20" height="20"/>
<rect id="_x3C_Slice_x3E__9_" x="29" y="157" fill-rule="evenodd" clip-rule="evenodd" fill="none" width="16" height="16"/>
<rect id="_x3C_Slice_x3E__10_" x="47" y="157" fill-rule="evenodd" clip-rule="evenodd" fill="none" width="16" height="16"/>
<rect id="_x3C_Slice_x3E__11_" x="19" y="193" fill-rule="evenodd" clip-rule="evenodd" fill="none" width="78" height="72"/>
<rect id="_x3C_Slice_x3E__12_" x="-7" y="-13" fill="none" width="616" height="626"/>
</svg>
